<svg width="316" height="120" viewBox="0 0 316 120" fill="none" xmlns="http://www.w3.org/2000/svg">
<mask id="mask0_543_385" style="mask-type:luminance" maskUnits="userSpaceOnUse" x="0" y="0" width="316" height="120">
<path d="M315.789 0H0V120H315.789V0Z" fill="white"/>
</mask>
<g mask="url(#mask0_543_385)">
<path d="M103.921 59.6491C108.7 56.7117 112.628 52.5754 115.315 47.651C118.002 42.7266 119.354 37.1851 119.238 31.5766C119.121 25.9681 117.54 20.4875 114.651 15.6788C111.763 10.87 107.666 6.90036 102.769 4.1637C97.8724 1.42703 92.3449 0.0185331 86.7355 0.0779785C81.1261 0.137424 75.6298 1.66275 70.7919 4.50257C65.9541 7.3424 61.9431 11.398 59.1568 16.2669C56.3706 21.1357 54.906 26.6486 54.9085 32.2583V87.04C54.9085 91.5055 53.5843 95.8708 51.1034 99.5837C48.6225 103.297 45.0963 106.191 40.9706 107.899C36.845 109.608 32.3053 110.055 27.9256 109.184C23.5458 108.313 19.5228 106.163 16.3652 103.005C13.2076 99.8475 11.0572 95.8245 10.186 91.4448C9.31482 87.065 9.76194 82.5253 11.4709 78.3997C13.1798 74.2741 16.0737 70.7479 19.7866 68.267C23.4996 65.786 27.8648 64.4619 32.3304 64.4619H45.4851C45.4851 60.4394 42.2944 54.8899 33.5484 54.8899H32.1402C26.5335 54.9131 21.0302 56.4009 16.1755 59.2057C11.3207 62.0104 7.28302 66.035 4.46241 70.8805C1.6418 75.7261 0.136152 81.2245 0.0946326 86.8311C0.0531129 92.4377 1.47716 97.9578 4.2257 102.845C6.97424 107.731 10.9519 111.815 15.7646 114.692C20.5772 117.568 26.0579 119.137 31.6636 119.243C37.2694 119.35 42.8056 117.99 47.7238 115.298C52.642 112.606 56.7716 108.675 59.7034 103.896C62.244 108.04 65.6912 111.555 69.7855 114.175C73.8799 116.795 78.515 118.452 83.3423 119.023C88.1695 119.594 93.0634 119.062 97.6558 117.469C102.248 115.876 106.42 113.263 109.857 109.825C113.294 106.388 115.907 102.216 117.499 97.6235C119.092 93.0309 119.622 88.137 119.051 83.3098C118.479 78.4826 116.821 73.8477 114.201 69.7537C111.58 65.6597 108.065 62.213 103.921 59.6729V59.6491ZM64.4923 32.2583C64.4923 27.7928 65.8165 23.4275 68.2974 19.7146C70.7783 16.0016 74.3046 13.1077 78.4302 11.3988C82.5558 9.68993 87.0955 9.24281 91.4752 10.114C95.855 10.9852 99.878 13.1355 103.036 16.2931C106.193 19.4508 108.344 23.4738 109.215 27.8535C110.086 32.2332 109.639 36.773 107.93 40.8986C106.221 45.0242 103.327 48.5504 99.6142 51.0313C95.9013 53.5123 91.536 54.8364 87.0705 54.8364H64.4923V32.2583ZM87.0705 109.642C81.0862 109.629 75.3507 107.247 71.1192 103.015C66.8877 98.7835 64.5049 93.048 64.4923 87.0638V64.4856H87.0705C93.0641 64.4856 98.8122 66.8666 103.051 71.1047C107.289 75.3428 109.67 81.091 109.67 87.0846C109.67 93.0782 107.289 98.8263 103.051 103.064C98.8122 107.303 93.0641 109.683 87.0705 109.683V109.642Z" fill="#FD4F1E"/>
<path d="M255.658 52.6261C256.939 50.317 257.583 47.7085 257.524 45.0684C257.562 42.2798 256.889 39.5276 255.569 37.071C252.545 31.7235 246.235 28.6279 237.53 28.6279H208.309V90.8367H237.5C246.205 90.8367 252.515 87.7292 255.539 82.3936C256.859 79.937 257.532 77.1847 257.494 74.3962C257.563 71.7606 256.929 69.1541 255.658 66.8444C253.614 63.1963 249.883 60.98 244.636 60.5344V58.9302C249.853 58.4014 253.584 56.2446 255.658 52.6261ZM245.082 68.1753C245.831 69.5339 246.2 71.0691 246.151 72.6197C246.237 74.1914 245.899 75.7572 245.171 77.1531C243.573 79.7318 240.549 81.1934 236.193 81.1934H219.147V64.444H236.164C240.43 64.444 243.543 65.5967 245.052 68.1753H245.082ZM236.17 54.9612H219.147V38.2771H236.164C240.519 38.2771 243.543 39.7388 245.141 42.3115C245.869 43.7074 246.207 45.2732 246.122 46.8449C246.172 48.3956 245.802 49.931 245.052 51.2893C243.543 53.8679 240.43 54.9612 236.164 54.9612H236.17Z" fill="#00383D"/>
<path d="M315.668 38.2712V28.6279H271.812V90.8367H282.639V64.4559H296.215C304.884 64.4559 308.045 58.9539 308.045 54.9493H282.639V38.2712H315.668Z" fill="#00383D"/>
<path d="M164.46 28.6279V38.2712H181.198V70.3559C181.198 73.4839 179.955 76.4838 177.743 78.6956C175.531 80.9074 172.532 82.15 169.404 82.15C166.276 82.15 163.276 80.9074 161.064 78.6956C158.852 76.4838 157.609 73.4839 157.609 70.3559C157.572 68.3571 157.855 66.3652 158.447 64.4559H147.521C146.847 67.5449 146.832 70.7413 147.477 73.8365C148.121 76.9317 149.411 79.8563 151.262 82.4194C153.113 84.9826 155.484 87.1268 158.219 88.7121C160.955 90.2975 163.994 91.2884 167.138 91.6203C170.282 91.9521 173.461 91.6174 176.467 90.6381C179.473 89.6587 182.239 88.0567 184.584 85.9364C186.93 83.8162 188.802 81.2253 190.078 78.3329C191.355 75.4405 192.008 72.3114 191.994 69.1498V28.6279H164.46Z" fill="#00383D"/>
</g>
</svg>
