<svg width="539" height="164" viewBox="0 0 539 164" fill="none" xmlns="http://www.w3.org/2000/svg">
<path fill-rule="evenodd" clip-rule="evenodd" d="M473.766 99.9415L473.805 97.6438C474.073 82.5165 483.143 75.7414 492.016 75.7414C496.468 75.7414 501.668 78.1619 501.668 84.9832C501.668 89.4932 499.772 93.0466 496.027 95.5459C491.847 98.3373 485.159 99.8066 476.147 99.9126L473.766 99.9415ZM494.95 49.5424C474.873 49.5424 458.144 55.8238 446.561 67.7018C436.204 78.3277 430.5 92.9442 430.5 108.852C430.5 125.816 435.091 139.158 444.149 148.499C454.126 158.787 469.408 164.001 489.57 164.001C514.78 164.001 532.801 155.768 537.762 153.224L527.087 128.483C517.29 133.72 506.877 136.486 496.908 136.486C484.385 136.486 476.334 131.335 474.814 122.351L474.382 119.779L477.081 119.759C496.337 119.636 510.574 117.063 520.609 111.892C526.226 108.995 530.536 105.216 533.415 100.655C536.541 95.7077 538.126 89.6226 538.126 82.5707C538.126 71.5605 534.149 63.1383 526.313 57.5333C518.894 52.2289 508.341 49.5424 494.95 49.5424Z" fill="#FF5A5F"/>
<path fill-rule="evenodd" clip-rule="evenodd" d="M261.967 160.583H305.791V142.827L301.871 142.475C297.409 141.985 295.833 140.066 295.833 135.136V52.9585H249.416V71.3402L255.932 71.909C260.394 72.3991 261.967 74.3178 261.967 79.2481V160.583ZM0 71.6493L4.91828 72.018C8.51603 72.4687 10.8803 73.8545 10.8803 79.1811V128.514C10.882 152.723 20.898 164 42.4042 164C55.9359 164 66.7189 158.27 72.7664 147.868L73.0312 147.413H75.1067V161.2H116.166V143.339L111.219 142.784C107.102 142.295 105.712 140.378 105.712 135.188V52.9579H62.5147V71.6641L66.3823 72.018C70.7778 72.51 72.3307 74.4405 72.3307 79.398V119.68C72.3307 130.54 66.1329 137.837 56.9113 137.837C46.7365 137.837 44.6916 131.548 44.6916 121.404V52.9581H0V71.6493ZM196.185 162.291H240.875V144.434L235.96 144.066C232.359 143.614 229.996 142.226 229.996 136.902V86.739C229.996 62.5252 219.978 51.2501 198.472 51.2501C184.942 51.2501 174.159 56.9799 168.11 67.3836L167.845 67.8362H165.77V54.0499H124.708V72.7425L129.659 73.2978C133.776 73.7866 135.163 75.7032 135.163 80.8914V162.292H178.36V144.434L174.494 144.079C170.097 143.587 168.544 141.657 168.544 136.699V95.5697C168.544 84.7115 174.742 77.4168 183.963 77.4168C194.142 77.4168 196.183 83.7034 196.183 93.8458L196.185 162.291ZM381.112 52.9587V71.4872L385.748 71.832C387.552 72.0147 388.96 74.0272 388.96 75.8842C388.96 76.2483 388.908 76.5931 388.811 76.9246L372.761 127.286H371.203L356.712 79.2991C356.071 77.1142 356.136 75.5561 356.908 74.3825C357.651 73.2551 359.024 72.2847 361.102 72.0405L366.061 71.487V52.9585H309.208V71.3691L315.448 72.1345C318.026 72.4386 319.533 73.2962 320.303 75.1583L350.334 160.583H388.512L416.679 78.5202C418.21 73.9077 420.125 72.3395 424.264 71.8509L428.791 71.4868V52.9583L381.112 52.9587ZM526.166 0C499.128 0 481.377 13.6667 485.856 41C512.728 41 526.166 27.5041 526.166 0Z" fill="#07BE54"/>
</svg>
