<svg width="495" height="153" viewBox="0 0 495 153" fill="none" xmlns="http://www.w3.org/2000/svg">
<path d="M76.3096 152.783C118.454 152.783 152.619 118.582 152.619 76.3917C152.619 34.2017 118.454 0 76.3096 0C34.165 0 0 34.2017 0 76.3917C0 118.582 34.165 152.783 76.3096 152.783Z" fill="white"/>
<path d="M69.5842 60.3362C70.8776 60.3362 72.4296 61.1131 73.2057 62.1489L97.5213 98.6615L107.092 50.7549H50.9595V60.0773H69.5842V60.3362Z" fill="url(#paint0_linear_543_225)"/>
<path d="M139.427 38.584C144.859 53.8623 142.531 70.9533 133.477 82.3473C129.856 86.7496 124.165 91.1518 117.439 94.5182L113.3 114.199C113.042 115.494 111.748 116.529 110.455 116.529H90.7956C89.5022 116.529 87.9501 115.753 87.1741 114.717L63.1172 78.2041L61.3064 86.7496L55.6155 114.458C55.6155 115.494 54.3222 116.529 53.0288 116.529H50.7007C50.7007 133.361 72.9469 152.265 109.938 141.907C133.736 129.736 150.033 104.876 150.033 76.3914C149.774 62.6668 146.152 49.719 139.427 38.584Z" fill="url(#paint1_linear_543_225)"/>
<path d="M5.69092 87.2675C5.69092 59.8183 24.5743 50.7549 44.4924 50.7549H51.218V60.0773H50.1833C48.8899 60.0773 47.5965 61.1131 47.3379 62.4078L46.5618 65.2564L36.7321 114.199C36.4734 115.494 37.2495 116.529 38.5429 116.529H50.7007C50.7007 133.361 72.9468 152.265 109.938 141.907C99.8492 147.086 88.4674 149.935 76.3096 149.935C34.1453 149.935 5.69092 115.235 5.69092 87.2675Z" fill="url(#paint2_linear_543_225)"/>
<path d="M117.439 94.5185C124.165 91.4111 129.856 87.0088 133.477 82.3476C142.79 70.9536 144.859 53.8626 139.427 38.5843C128.563 20.7164 110.455 7.5097 88.985 3.88434C74.4991 2.84852 60.7893 6.73284 53.5463 16.3142C50.1835 20.7164 49.6662 26.6724 51.2182 33.6641H108.386C109.679 33.6641 111.231 34.441 112.007 35.4768L124.165 54.3805C124.941 55.4163 125.2 57.229 124.941 58.5238L117.439 94.5185Z" fill="url(#paint3_linear_543_225)"/>
<path d="M88.9849 3.88445C74.499 2.84863 60.7891 6.73296 53.5462 16.3143C50.1834 20.7165 49.666 26.6725 51.2181 33.6643H20.1769C16.8141 33.6643 17.3315 32.3695 19.9182 29.0031C33.3694 12.9479 53.5462 2.84863 76.3097 2.84863C80.7072 2.84863 84.8461 3.10759 88.9849 3.88445Z" fill="url(#paint4_linear_543_225)"/>
<path d="M36.7322 114.199L46.5619 65.2568H39.319C38.0256 65.2568 36.7322 66.2927 36.4735 67.5874L26.6438 114.199C26.3851 115.494 27.1612 116.53 28.4545 116.53H38.2843C37.2495 116.53 36.4735 115.494 36.7322 114.199Z" fill="url(#paint5_linear_543_225)"/>
<path d="M83.035 116.529H90.7953C89.5019 116.529 87.9498 115.753 87.1738 114.717L63.1169 78.2041L61.3062 86.7496L79.1548 114.458C79.9309 115.494 81.7416 116.529 83.035 116.529Z" fill="url(#paint6_linear_543_225)"/>
<path d="M277.302 49.7197C277.302 41.1742 282.475 34.4414 291.27 34.4414C300.065 34.4414 305.239 41.1742 305.239 49.7197C305.239 58.7832 299.548 64.9981 291.27 64.9981C282.734 64.9981 277.302 58.5242 277.302 49.7197ZM298.255 49.7197C298.255 44.0227 295.409 40.1384 291.012 40.1384C286.614 40.1384 284.027 44.2817 284.027 49.7197C284.027 54.8988 286.355 59.56 291.27 59.56C295.409 59.3011 298.255 55.4167 298.255 49.7197Z" fill="black"/>
<path d="M181.85 64.2212C181.332 64.2212 181.074 63.9623 181.074 63.4443V35.9951C181.074 35.4772 181.332 35.2183 181.85 35.2183H185.989C186.506 35.2183 186.765 35.7362 186.765 35.9951L187.282 38.8436C189.093 36.513 192.456 34.4414 196.077 34.4414C201.509 34.4414 205.907 37.8078 205.907 45.8354V63.7033C205.907 64.2212 205.648 64.4802 205.131 64.4802H200.216C199.698 64.4802 199.44 64.2212 199.44 63.7033V46.6123C199.44 41.9511 196.853 40.3974 194.266 40.3974C190.903 40.3974 187.799 43.2459 187.799 48.9429V63.4443C187.799 63.9623 187.541 64.2212 187.023 64.2212H181.85Z" fill="black"/>
<path d="M181.85 117.826C181.332 117.826 181.074 117.567 181.074 117.049V89.3408C181.074 88.8229 181.332 88.564 181.85 88.564H185.989C186.506 88.564 186.765 89.0819 186.765 89.3408L187.023 92.1893C188.834 89.8587 192.197 87.7871 195.818 87.7871C201.251 87.7871 205.648 91.1535 205.648 99.1811V117.049C205.648 117.567 205.389 117.826 204.872 117.826H199.957C199.44 117.826 199.181 117.567 199.181 117.049V100.217C199.181 95.2968 196.594 94.002 194.008 94.002C190.645 94.002 187.541 96.8505 187.541 102.548V117.049C187.541 117.567 187.282 117.826 186.765 117.826H181.85Z" fill="black"/>
<path d="M311.446 64.2212C310.929 64.2212 310.67 63.9623 310.67 63.4443V35.9951C310.67 35.4772 310.929 35.2183 311.446 35.2183H315.585C316.103 35.2183 316.361 35.7362 316.361 35.9951L316.62 38.8436C318.431 36.513 321.794 34.4414 325.415 34.4414C330.847 34.4414 335.245 37.8078 335.245 45.8354V63.7033C335.245 64.2212 334.986 64.4802 334.469 64.4802H329.554C329.036 64.4802 328.778 64.2212 328.778 63.7033V46.6123C328.778 41.9511 326.191 40.3974 323.604 40.3974C320.241 40.3974 317.137 43.2459 317.137 48.9429V63.4443C317.137 63.9623 316.879 64.2212 316.361 64.2212H311.446Z" fill="black"/>
<path d="M224.79 39.8795C227.894 39.8795 230.998 42.2101 230.998 48.6839V49.9787C230.998 57.4884 227.377 59.3011 225.049 59.3011C220.651 59.3011 218.323 54.6399 218.323 49.4608C218.064 43.7638 220.91 39.8795 224.79 39.8795ZM223.497 34.4414C217.288 34.4414 211.339 39.6205 211.339 49.7197C211.339 58.0063 215.736 64.9981 223.497 64.9981C226.859 64.9981 229.964 62.9264 231.257 60.5958L231.774 63.4443C231.774 63.9623 232.292 64.2212 232.55 64.2212H236.689C237.207 64.2212 237.465 63.9623 237.465 63.4443V35.9951C237.465 35.4772 237.207 35.2183 236.689 35.2183H232.809C232.292 35.2183 232.033 35.7362 232.033 35.9951L231.774 38.5847C229.705 36.2541 227.118 34.4414 223.497 34.4414Z" fill="black"/>
<path d="M354.387 93.4841C357.491 93.4841 360.595 95.8147 360.595 102.03V103.583C360.595 111.093 356.974 112.906 354.646 112.906C350.248 112.906 347.92 108.245 347.92 103.065C347.662 97.3684 350.507 93.4841 354.387 93.4841ZM353.094 87.7871C346.886 87.7871 340.936 92.9662 340.936 103.065C340.936 111.611 345.334 118.344 353.094 118.344C356.457 118.344 359.561 116.272 360.854 113.942L361.371 116.79C361.371 117.308 361.889 117.567 362.148 117.567H366.286C366.804 117.567 367.062 117.308 367.062 116.79V89.3408C367.062 88.8229 366.804 88.564 366.286 88.564H362.665C362.148 88.564 361.889 89.0819 361.889 89.3408L361.63 91.9304C359.302 89.5998 356.715 87.7871 353.094 87.7871Z" fill="black"/>
<path d="M354.129 39.8795C356.974 39.8795 360.337 42.2101 360.337 48.6839V49.9787C360.337 57.4884 356.715 59.3011 354.387 59.3011C349.99 59.3011 347.662 54.6399 347.662 49.4608C347.403 43.7638 350.248 39.8795 354.129 39.8795ZM353.094 34.4414C346.886 34.4414 340.936 39.6205 340.936 49.7197C340.936 58.0063 345.334 64.9981 353.094 64.9981C356.457 64.9981 359.561 62.9264 360.854 60.5958L361.371 63.4443C361.371 63.9623 361.889 64.2212 362.148 64.2212H366.286C366.804 64.2212 367.062 63.9623 367.062 63.4443V35.9951C367.062 35.4772 366.804 35.2183 366.286 35.2183H362.406C361.889 35.2183 361.63 35.7362 361.63 35.9951L361.371 38.5847C359.302 36.2541 356.715 34.4414 353.094 34.4414Z" fill="black"/>
<path d="M270.576 35.2188C271.093 35.2188 271.352 35.4777 271.352 35.9956V63.4448C271.352 63.9627 271.093 64.2217 270.576 64.2217H265.661C265.143 64.2217 264.885 63.9627 264.885 63.4448V36.5135C264.885 35.9956 265.143 35.7367 265.661 35.7367L270.576 35.2188Z" fill="black"/>
<path d="M379.737 23.0479C380.255 23.0479 380.513 23.3068 380.513 23.8247V63.4448C380.513 63.9627 380.255 64.2217 379.737 64.2217H374.822C374.305 64.2217 374.046 63.9627 374.046 63.4448V24.3426C374.046 23.8247 374.305 23.5658 374.822 23.5658L379.737 23.0479Z" fill="black"/>
<path d="M268.247 31.3341C270.39 31.3341 272.127 29.595 272.127 27.4498C272.127 25.3045 270.39 23.5654 268.247 23.5654C266.104 23.5654 264.367 25.3045 264.367 27.4498C264.367 29.595 266.104 31.3341 268.247 31.3341Z" fill="black"/>
<path d="M258.418 59.5597C258.418 59.0417 257.901 58.7828 257.125 59.0417C256.607 59.3007 255.314 59.5597 254.279 59.5597C252.468 59.5597 251.434 58.7828 251.434 56.1932V40.397H257.642C258.159 40.397 258.418 40.138 258.418 39.6201V35.9948C258.418 35.4769 258.159 35.2179 257.642 35.2179H251.434V27.4493C251.434 26.9313 251.175 26.4134 250.658 26.6724L245.743 26.9313C245.225 26.9313 244.967 27.4493 244.967 27.7082V56.7111C244.967 61.3723 247.036 64.9977 252.986 64.9977C254.797 64.9977 256.866 64.7388 258.418 63.9619C258.677 63.7029 258.935 63.7029 258.935 63.185L258.418 59.5597Z" fill="black"/>
<path d="M393.189 47.1304C393.706 43.7639 395.258 39.6207 399.655 39.6207C404.312 39.6207 405.864 43.246 406.122 47.1304H393.189ZM400.173 64.9982C404.312 64.9982 407.674 63.9624 410.261 62.4087C410.779 62.1497 410.779 61.6318 410.779 61.3729L409.485 58.0065C409.227 57.4885 408.709 57.4885 408.45 57.4885C406.122 58.5244 403.536 59.3012 400.69 59.3012C395.775 59.3012 393.706 55.9348 393.189 51.7915H412.072C412.589 51.7915 412.848 51.5326 412.848 51.0147C412.848 50.2378 412.848 49.9789 412.848 49.202C412.848 41.9513 409.227 34.1826 399.914 34.1826C391.378 34.1826 386.463 40.6565 386.463 49.7199C386.204 59.0423 391.636 64.9982 400.173 64.9982Z" fill="black"/>
<path d="M470.275 117.826C469.757 117.826 469.499 117.567 469.499 117.049V89.3408C469.499 88.8229 469.757 88.564 470.275 88.564H474.413C474.931 88.564 475.189 89.0819 475.189 89.3408L475.448 92.1893C477.259 89.8587 480.622 87.7871 484.243 87.7871C489.675 87.7871 494.073 91.1535 494.073 99.1811V117.049C494.073 117.567 493.814 117.826 493.297 117.826H488.382C487.865 117.826 487.606 117.567 487.606 117.049V100.217C487.606 95.2968 485.019 94.002 482.432 94.002C479.07 94.002 475.965 96.8505 475.965 102.548V117.049C475.965 117.567 475.707 117.826 475.189 117.826H470.275Z" fill="black"/>
<path d="M375.34 117.826C374.822 117.826 374.563 117.567 374.563 117.049V89.3408C374.563 88.8229 374.822 88.564 375.34 88.564H379.478C379.996 88.564 380.254 89.0819 380.254 89.3408L380.513 92.1893C382.324 89.8587 385.687 87.7871 389.308 87.7871C394.74 87.7871 399.138 91.1535 399.138 99.1811V117.049C399.138 117.567 398.879 117.826 398.362 117.826H393.447C392.93 117.826 392.671 117.567 392.671 117.049V100.217C392.671 95.2968 390.084 94.002 387.497 94.002C384.135 94.002 381.03 96.8505 381.03 102.548V117.049C381.03 117.567 380.772 117.826 380.254 117.826H375.34Z" fill="black"/>
<path d="M334.469 76.3926C334.986 76.3926 335.245 76.6515 335.245 77.1694V116.79C335.245 117.307 334.986 117.566 334.469 117.566H329.554C329.037 117.566 328.778 117.307 328.778 116.79V77.6874C328.778 77.1694 329.037 76.9105 329.554 76.9105L334.469 76.3926Z" fill="black"/>
<path d="M218.323 100.735C218.841 97.3686 220.393 93.2253 224.79 93.2253C229.446 93.2253 230.998 96.8507 231.257 100.735H218.323ZM225.308 118.344C229.446 118.344 232.809 117.308 235.396 115.754C235.913 115.495 235.913 114.978 235.913 114.719L234.62 111.352C234.361 110.834 233.844 110.834 233.585 110.834C231.257 111.87 228.67 112.647 225.825 112.647C220.91 112.647 218.841 109.281 218.323 105.137H237.207C237.724 105.137 237.983 104.878 237.983 104.36C237.983 103.584 237.983 103.325 237.983 102.548C237.983 95.297 234.361 87.5283 225.049 87.5283C216.513 87.5283 211.598 94.0022 211.598 103.066C211.339 112.388 216.771 118.344 225.308 118.344Z" fill="black"/>
<path d="M282.216 100.735C282.733 97.3686 284.285 93.2253 288.683 93.2253C293.339 93.2253 294.891 96.8507 295.15 100.735H282.216ZM289.459 118.344C293.598 118.344 296.961 117.308 299.547 115.754C300.065 115.495 300.065 114.978 300.065 114.719L298.771 111.352C298.513 110.834 297.995 110.834 297.737 110.834C295.409 111.87 292.822 112.647 289.976 112.647C285.061 112.647 282.992 109.281 282.475 105.137H301.358C301.875 105.137 302.134 104.878 302.134 104.36C302.134 103.584 302.134 103.325 302.134 102.548C302.134 95.297 298.513 87.5283 289.2 87.5283C280.664 87.5283 275.749 94.0022 275.749 103.066C275.49 112.388 280.923 118.344 289.459 118.344Z" fill="black"/>
<path d="M268.507 76.3926L263.592 76.9105C263.075 76.9105 262.816 77.4284 262.816 77.6874V91.153C261.005 89.3403 258.16 87.7866 254.797 87.7866C248.589 87.7866 242.639 92.9657 242.639 103.065C242.639 111.61 247.037 118.343 254.797 118.343C258.16 118.343 261.781 116.272 263.333 113.941L263.851 116.79C263.851 117.307 264.368 117.566 264.627 117.566H268.507C269.024 117.566 269.283 117.307 269.283 116.79V77.1694C269.283 76.9105 269.024 76.3926 268.507 76.3926ZM262.816 103.583C262.816 111.093 258.677 112.905 256.09 112.905C251.693 112.905 249.365 108.244 249.365 103.065C249.365 97.3679 252.21 93.4836 256.09 93.4836C258.936 93.4836 262.816 95.8142 262.816 102.029V103.583Z" fill="black"/>
<path d="M444.148 100.735C444.665 97.3686 446.217 93.2253 450.615 93.2253C455.271 93.2253 456.823 96.8507 457.081 100.735H444.148ZM451.391 118.344C455.529 118.344 458.892 117.308 461.479 115.754C461.996 115.495 461.996 114.978 461.996 114.719L460.703 111.352C460.444 110.834 459.927 110.834 459.668 110.834C457.34 111.87 454.753 112.647 451.908 112.647C446.993 112.647 444.924 109.281 444.406 105.137H463.29C463.807 105.137 464.066 104.878 464.066 104.36C464.066 103.584 464.066 103.325 464.066 102.548C464.066 95.297 460.444 87.5283 451.132 87.5283C442.596 87.5283 437.681 94.0022 437.681 103.066C437.422 112.388 442.854 118.344 451.391 118.344Z" fill="black"/>
<path d="M430.956 76.3926L426.041 76.9105C425.523 76.9105 425.265 77.4284 425.265 77.6874V91.153C423.454 89.3403 420.608 87.7866 417.246 87.7866C411.037 87.7866 405.088 92.9657 405.088 103.065C405.088 111.61 409.485 118.343 417.246 118.343C420.608 118.343 424.23 116.272 425.523 113.941L426.041 116.79C426.041 117.307 426.558 117.566 426.817 117.566H430.697C431.214 117.566 431.473 117.307 431.473 116.79V77.1694C431.732 76.9105 431.214 76.3926 430.956 76.3926ZM425.265 103.583C425.265 111.093 421.126 112.905 418.539 112.905C414.142 112.905 411.813 108.244 411.813 103.065C411.813 97.3679 414.659 93.4836 418.539 93.4836C421.385 93.4836 425.265 95.8142 425.265 102.029V103.583Z" fill="black"/>
<path d="M323.604 88.8228C323.604 88.3049 323.346 88.0459 322.828 88.0459C319.207 88.0459 315.844 90.1175 313.775 92.4481L313.516 89.5996C313.516 89.0817 312.999 88.8228 312.74 88.8228H308.601C308.084 88.8228 307.825 89.0817 307.825 89.5996V117.049C307.825 117.567 308.084 117.826 308.601 117.826H313.516C314.033 117.826 314.292 117.567 314.292 117.049V102.806C314.292 96.8504 317.914 94.5198 321.276 94.5198C321.794 94.5198 322.311 94.5198 322.57 94.7787C323.346 94.7787 323.604 94.5198 323.604 94.0019V88.8228Z" fill="black"/>
<defs>
<linearGradient id="paint0_linear_543_225" x1="110.826" y1="61.4352" x2="58.2345" y2="80.5564" gradientUnits="userSpaceOnUse">
<stop offset="0.3374" stop-color="#F4AA1C"/>
<stop offset="0.8466" stop-color="#ED8722"/>
</linearGradient>
<linearGradient id="paint1_linear_543_225" x1="100.269" y1="144.828" x2="100.269" y2="38.5848" gradientUnits="userSpaceOnUse">
<stop offset="0.0061" stop-color="#EC7E23"/>
<stop offset="0.2515" stop-color="#F09220"/>
<stop offset="0.7791" stop-color="#F09220"/>
<stop offset="0.9939" stop-color="#F19C1F"/>
</linearGradient>
<linearGradient id="paint2_linear_543_225" x1="26.6799" y1="131.45" x2="80.6521" y2="86.2106" gradientUnits="userSpaceOnUse">
<stop offset="0.2147" stop-color="#E66124"/>
<stop offset="0.5399" stop-color="#E86C24"/>
<stop offset="0.816" stop-color="#ED8722"/>
</linearGradient>
<linearGradient id="paint3_linear_543_225" x1="80.7622" y1="65.2305" x2="119.462" y2="16.6836" gradientUnits="userSpaceOnUse">
<stop offset="0.5153" stop-color="#F4AA1C"/>
<stop offset="0.8589" stop-color="#FCC90A"/>
</linearGradient>
<linearGradient id="paint4_linear_543_225" x1="53.4138" y1="33.6275" x2="53.4138" y2="2.76654" gradientUnits="userSpaceOnUse">
<stop offset="0.0061" stop-color="#EC7E23"/>
<stop offset="0.2515" stop-color="#F09220"/>
<stop offset="0.7791" stop-color="#F09220"/>
<stop offset="0.9939" stop-color="#F19C1F"/>
</linearGradient>
<linearGradient id="paint5_linear_543_225" x1="36.6507" y1="116.513" x2="36.6507" y2="65.2214" gradientUnits="userSpaceOnUse">
<stop offset="0.3067" stop-color="#E76524"/>
<stop offset="0.6258" stop-color="#DF541A"/>
</linearGradient>
<linearGradient id="paint6_linear_543_225" x1="76.0678" y1="116.452" x2="76.0678" y2="78.0042" gradientUnits="userSpaceOnUse">
<stop stop-color="#F19C1F"/>
<stop offset="0.2945" stop-color="#E8721B"/>
</linearGradient>
</defs>
</svg>
