<svg width="859" height="248" viewBox="0 0 859 248" fill="none" xmlns="http://www.w3.org/2000/svg">
<path d="M336.13 21.917V106.26L368.958 21.917H392.932L357.387 109.345L395.73 197.519H368.958L336.13 108.567V197.519H312.404V21.917H336.13Z" fill="#727070"/>
<path d="M418.424 143.047C418.424 152.812 417.971 179.84 432.14 179.84C443.755 179.84 445.896 167.027 445.896 157.921H466.161C466.161 179.593 456.605 199.37 431.934 199.37C399.107 199.37 396.101 164.431 396.101 139.545C396.101 115.566 398.86 78.0312 431.275 78.0312C463.154 78.0312 466.861 115.278 466.861 139.545V143.047H418.424ZM444.496 127.432C444.496 118.368 444.496 97.6432 431.234 97.6432C417.477 97.6432 418.424 118.368 418.424 127.432H444.496Z" fill="#727070"/>
<path d="M592.112 4.24121H570.202V197.519H592.112V4.24121Z" fill="#727070"/>
<path d="M658.63 182.395H658.177C653.77 192.654 649.116 199.37 636.512 199.37C609.287 199.37 608.793 156.314 608.793 137.197C608.793 117.667 609.493 78.0312 637.212 78.0312C647.468 78.0312 654.182 84.3351 658.177 92.9462H658.63V79.9265H680.501V197.516H658.63V182.395ZM659.371 138.598C659.371 129.327 660.277 97.6432 645.615 97.6432C629.304 97.6432 631.158 129.08 631.158 138.598C631.158 148.404 629.304 179.84 645.615 179.84C660.277 179.84 659.371 147.95 659.371 138.598ZM722.677 93.4407H723.13C725.683 88.5789 728.731 84.8295 732.438 82.275C736.392 79.5145 741.046 78.0725 746.854 78.0725C770.125 78.0725 770.825 98.7969 770.825 116.72V197.516H748.954V116.266C748.954 108.108 747.554 97.6432 735.898 97.6432C721.482 97.6432 722.635 114.206 722.635 124.177V197.516H700.765V79.9265H722.635V93.4407H722.677ZM809.953 143.047C809.953 152.812 809.5 179.84 823.669 179.84C835.325 179.84 837.425 167.027 837.425 157.921H857.69C857.69 179.593 848.134 199.37 823.463 199.37C790.636 199.37 787.629 164.431 787.629 139.545C787.629 115.566 790.43 78.0312 822.762 78.0312C854.683 78.0312 858.39 115.278 858.39 139.545V143.047H809.953ZM836.025 127.432C836.025 118.368 836.025 97.6432 822.762 97.6432C809.047 97.6432 809.953 118.368 809.953 127.432H836.025Z" fill="#727070"/>
<path d="M474.274 79.9268L492.317 155.158H515.011L498.74 79.9268H474.274Z" fill="#727070"/>
<path d="M536.218 79.9268L515.01 155.158L487.287 245.764H510.354L558.296 79.9268H536.218Z" fill="#727070"/>
<path d="M474.274 79.9268L492.317 155.158H515.011L498.74 79.9268H474.274Z" fill="#727070"/>
<path d="M536.218 79.9268L515.01 155.158L487.287 245.764H510.354L558.296 79.9268H536.218Z" fill="#727070"/>
<path d="M157.295 130.197L123.316 247.622L239.506 130.156L157.295 130.197ZM1.68869 130.197L87.6884 216.226L114.337 130.074L1.68869 130.197ZM0 121.298H72.2842L53.791 67.5295L0 121.298ZM159.89 121.298H241.236L178.425 57.1879L159.89 121.298ZM91.8071 29.4592L117.302 121.298L144.774 23.6497L121.256 0L91.8071 29.4592Z" fill="white"/>
<mask id="mask0_543_393" style="mask-type:luminance" maskUnits="userSpaceOnUse" x="0" y="0" width="242" height="248">
<path d="M157.295 130.197L123.316 247.622L239.506 130.156L157.295 130.197ZM1.68869 130.197L87.6884 216.226L114.337 130.074L1.68869 130.197ZM0 121.298H72.2842L53.791 67.5295L0 121.298ZM159.89 121.298H241.236L178.425 57.1879L159.89 121.298ZM91.8071 29.4592L117.302 121.298L144.774 23.6497L121.256 0L91.8071 29.4592Z" fill="white"/>
</mask>
<g mask="url(#mask0_543_393)">
<path d="M-122.906 123.811L121.462 368.3L365.868 123.811L121.462 -120.641L-122.906 123.811Z" fill="url(#paint0_radial_543_393)"/>
</g>
<defs>
<radialGradient id="paint0_radial_543_393" cx="0" cy="0" r="1" gradientUnits="userSpaceOnUse" gradientTransform="translate(20531.7 18920.2) scale(16960 16965.8)">
<stop stop-color="#FFCC07"/>
<stop offset="0.3443" stop-color="#F8AC08"/>
<stop offset="0.5951" stop-color="#F39208"/>
<stop offset="0.8255" stop-color="#D97511"/>
<stop offset="1" stop-color="#CA6316"/>
</radialGradient>
</defs>
</svg>
