<svg width="758" height="237" viewBox="0 0 758 237" fill="none" xmlns="http://www.w3.org/2000/svg">
<path d="M2.10057e-05 143.048C-0.00803294 135.239 2.3001 127.604 6.63254 121.107C10.965 114.61 17.1272 109.544 24.3398 106.548C31.5524 103.553 39.4916 102.763 47.1534 104.278C54.8151 105.793 61.8553 109.546 67.3837 115.062C72.9121 120.578 76.6803 127.608 78.2119 135.265C79.7435 142.922 78.9697 150.86 75.9883 158.078C73.0069 165.295 67.9518 171.466 61.4623 175.81C54.9728 180.155 47.3403 182.479 39.5301 182.487H39.4487C28.9895 182.476 18.9619 178.317 11.5662 170.923C4.17044 163.529 0.0107965 153.504 2.10057e-05 143.048Z" fill="#A01441"/>
<path d="M104.367 0V181.346H137.458V27.5828H213.299V181.346H246.472V27.5828H296.924C313.918 27.5828 325.94 37.8092 325.94 60.1769V181.549H359.071V51.1728C359.071 26.4827 346.357 0.366668 313.591 0.366668L104.367 0Z" fill="#6F6F6F"/>
<path d="M425.376 0C389.636 0 378.796 23.753 378.796 50.3172C378.796 78.837 390.614 102.631 423.094 102.631H501.869C525.995 102.631 525.995 121.209 525.995 129.643C525.995 138.077 525.995 153.681 502.48 153.681H381.893V181.345H516.377C549.916 181.345 559.493 161.626 559.493 129.887C559.493 92.0376 547.268 75.0479 518.496 75.0479H433.404C411.928 75.0479 411.928 60.5842 411.928 50.8875C411.928 43.3501 414.047 27.5827 437.072 27.5827H553.299V0H425.376Z" fill="#6F6F6F"/>
<path fill-rule="evenodd" clip-rule="evenodd" d="M725.031 153.722H655.751C635.375 153.722 614.428 155.27 613.898 128.665V56.9989C615.039 34.7127 623.271 26.8086 657.218 27.6235H725.234V153.926L725.031 153.722ZM645.481 0C615.976 0 604.973 4.72618 596.904 11.1635C588.061 18.212 579.951 27.1346 579.788 57.5694V123.002C579.788 155.229 588.754 164.234 597.882 171.893C604.036 176.293 614.183 181.305 645.563 181.305H724.99V188.313C724.99 202.002 722.341 207.95 706.651 207.95H603.139V237H717.247C748.015 237 758 223.31 758 197.439V0H645.481Z" fill="#6F6F6F"/>
</svg>
