<svg width="1009" height="249" viewBox="0 0 1009 249" fill="none" xmlns="http://www.w3.org/2000/svg">
<path d="M185.695 0H0V155.266L92.8474 248.113V61.6382L185.695 154.486V0Z" fill="#009286"/>
<path d="M185.695 155.266L92.8472 248.114V61.6387L185.695 155.266Z" fill="#F3C000"/>
<path d="M970.606 13.2705C933.155 13.2705 933.149 40.5725 933.149 69.441C933.149 98.3095 933.155 125.611 970.606 125.611C1008.06 125.611 1008.06 98.3095 1008.06 69.441C1008.06 40.5725 1008.06 13.2705 970.606 13.2705ZM280.103 15.6021L250.448 124.057H272.3L278.548 99.873H309.757L315.99 124.057H340.174L310.535 15.6021H280.103ZM358.903 15.6021V124.057H398.691C408.054 124.057 432.247 122.503 432.247 95.1947C432.247 80.3703 428.349 70.2273 411.965 67.8866C424.448 65.5459 430.693 56.171 430.693 43.6873C430.693 20.2804 416.649 15.6021 399.484 15.6021H358.903ZM458.778 15.6021V124.057H479.838V44.4797H480.616L510.271 124.057H539.925V15.6021H518.85V90.5011L489.988 15.6021H458.778ZM627.305 15.6021L597.65 124.057H619.503L625.751 99.873H656.96L663.193 124.057H687.377L656.96 15.6021H627.305ZM705.328 15.6021V124.057H727.181V40.5786H727.958L747.463 124.057H769.301L790.376 40.5786V124.057H812.213V15.6021H777.103L759.167 89.7239L741.993 15.6021H705.328ZM841.868 16.3792V124.057H864.498V78.7977H870.731C887.896 78.7977 887.128 89.7331 887.128 102.997C887.128 110.019 886.338 117.035 889.459 124.057H911.312C908.971 119.376 908.965 99.0928 908.965 92.0707C908.965 72.565 894.141 70.9954 889.459 70.9954C904.284 68.6547 909.742 58.5239 909.742 44.4797C909.742 25.7542 899.608 16.3793 884.004 16.3793L841.868 16.3792ZM970.606 30.4294C983.09 30.4294 984.657 42.1298 984.657 70.2181C984.657 98.3064 983.87 110.007 970.606 110.007C958.123 110.007 956.556 98.3064 956.556 70.2181C956.556 42.1298 958.123 30.4294 970.606 30.4294ZM381.533 31.9838H395.583C403.385 31.9838 408.841 38.2317 408.841 46.034C408.841 56.177 401.819 60.0842 397.137 60.0842H381.533V31.9838ZM864.498 31.9838H874.632C881.654 31.9838 886.335 35.891 886.335 46.034C886.335 53.0561 883.995 61.6386 874.632 61.6386H864.498V31.9838ZM293.36 36.6773L305.064 83.4912H283.227L293.36 36.6773ZM640.563 36.6773L652.266 83.4912H630.429L640.563 36.6773ZM575.935 46.9484L561.595 61.3034L575.95 75.6431L590.29 61.2881L575.935 46.9484ZM381.533 76.466H394.79C406.494 76.466 409.618 82.7079 409.618 92.0706C409.618 106.895 398.695 107.675 394.013 107.675H381.533V76.466Z" fill="#868686"/>
</svg>
