<svg width="295" height="157" viewBox="0 0 295 157" fill="none" xmlns="http://www.w3.org/2000/svg">
<path fill-rule="evenodd" clip-rule="evenodd" d="M123.071 28.2619H146.37C146.37 28.2619 160.969 28.3693 169.676 28.3693C173.235 28.288 176.772 28.9519 180.06 30.3187C183.347 31.6852 186.312 33.7245 188.765 36.3052C190.761 38.3565 192.437 40.6965 193.737 43.2467C195.386 40.5676 197.414 38.1414 199.759 36.0435C201.726 34.3434 203.884 32.8758 206.188 31.6693C208.061 30.714 210.029 29.9579 212.06 29.4133C216.64 28.1528 221.449 27.963 226.113 28.8585C230.778 29.754 235.174 31.7111 238.962 34.5781C240.006 35.3549 240.996 36.2036 241.923 37.1178C243.681 38.8411 245.23 40.7649 246.539 42.8501C247.237 43.9607 247.858 45.1176 248.399 46.3126C251.396 52.0118 251.153 63.3744 251.153 63.3744V110.803H226.178V66.6137C226.424 62.6471 225.862 58.6718 224.525 54.9288C223.026 51.0422 219.867 48.1939 213.402 48.1939C206.491 48.1939 203.028 51.3369 201.373 55.0803C200.009 58.3451 199.394 61.8737 199.571 65.4072V110.789H174.634V65.5587C174.776 62.0522 174.266 58.5497 173.13 55.2291C172.319 53.0213 170.807 51.1397 168.826 49.8715C166.845 48.603 164.503 48.0179 162.159 48.2049C155.093 48.2049 148.047 48.1636 148.047 48.1636C148.047 48.1636 148.022 64.074 148.022 66.6192V110.789H123.071V28.2619ZM0 93.7517L35.1731 46.5742H0V27.7082H62.077V46.5742L29.4601 91.953H62.077V110.827H0V93.7517ZM79.147 0H104.101V110.827H79.147V0Z" fill="#008EC3"/>
<path fill-rule="evenodd" clip-rule="evenodd" d="M59.3013 149.869H55.6433L49.6631 133.476H53.0264L57.5356 146.844H57.599L62.2046 133.476H65.276L59.3013 149.869ZM81.7814 149.191C80.1215 149.909 78.3291 150.27 76.5201 150.251C70.6088 150.251 67.8956 146.717 67.8956 141.382C67.808 140.311 67.9457 139.235 68.3008 138.221C68.6556 137.207 69.2191 136.279 69.9554 135.498C70.6915 134.716 71.5837 134.097 72.5742 133.682C73.5648 133.267 74.6313 133.064 75.7048 133.088C81.258 133.088 83.0567 137.076 83.0567 142.349H71.1625C71.1551 143.07 71.2922 143.786 71.566 144.454C71.8396 145.122 72.2439 145.728 72.7557 146.237C73.2673 146.747 73.8757 147.148 74.5448 147.418C75.2142 147.688 75.9309 147.822 76.6523 147.811C78.4808 147.747 80.2564 147.181 81.7841 146.175V149.205L81.7814 149.191ZM79.7871 140.101C79.8446 139.522 79.7799 138.937 79.5975 138.384C79.4149 137.832 79.1188 137.324 78.7279 136.893C78.337 136.462 77.8602 136.117 77.3283 135.882C76.7961 135.646 76.2207 135.525 75.6387 135.526C74.4443 135.551 73.3072 136.042 72.4706 136.895C71.6341 137.748 71.1644 138.895 71.1625 140.09H79.7898L79.7871 140.101ZM87.7257 133.49H90.6015V136.03H90.6676C91.0565 135.192 91.6672 134.476 92.4333 133.96C93.1993 133.444 94.0918 133.147 95.0143 133.101C95.6961 133.097 96.3756 133.174 97.0389 133.33V136.03C96.4963 135.825 95.9195 135.726 95.3393 135.738C92.5848 135.738 90.7971 138.313 90.7971 142.426V149.882H87.7285V133.476L87.7257 133.49ZM100.295 147.232L109.9 135.911H100.766V133.476H113.475V136.112L103.876 147.425H113.842V149.869H100.295V147.232ZM131.595 149.191C129.935 149.91 128.143 150.271 126.334 150.251C120.422 150.251 117.709 146.717 117.709 141.382C117.622 140.311 117.759 139.235 118.114 138.221C118.469 137.207 119.033 136.279 119.769 135.498C120.505 134.716 121.397 134.097 122.388 133.682C123.378 133.267 124.445 133.064 125.518 133.088C131.074 133.088 132.87 137.076 132.87 142.349H120.99C120.982 143.07 121.12 143.786 121.393 144.453C121.666 145.121 122.071 145.727 122.582 146.236C123.094 146.745 123.701 147.147 124.371 147.417C125.039 147.688 125.756 147.822 126.477 147.811C128.305 147.747 130.079 147.181 131.606 146.175V149.205L131.595 149.191ZM129.603 140.101C129.661 139.522 129.597 138.938 129.414 138.387C129.233 137.835 128.937 137.327 128.547 136.896C128.157 136.465 127.681 136.121 127.15 135.884C126.619 135.648 126.045 135.526 125.463 135.526C124.269 135.551 123.132 136.043 122.296 136.896C121.46 137.749 120.991 138.895 120.99 140.09H129.617L129.603 140.101ZM137.677 125.763H140.746V140.137L147.445 133.482H151.626L143.883 140.748L152.607 149.874H148.2L140.757 141.448V149.869H137.688V125.755L137.677 125.763ZM168.528 149.199C166.866 149.917 165.072 150.278 163.261 150.26C157.35 150.26 154.64 146.726 154.64 141.39C154.552 140.32 154.689 139.243 155.044 138.229C155.398 137.216 155.962 136.288 156.698 135.506C157.434 134.724 158.326 134.106 159.316 133.69C160.306 133.275 161.373 133.073 162.446 133.096C168.005 133.096 169.801 137.085 169.801 142.357H157.909C157.902 143.079 158.039 143.794 158.313 144.462C158.586 145.13 158.991 145.736 159.503 146.245C160.014 146.755 160.623 147.156 161.292 147.426C161.961 147.697 162.678 147.83 163.399 147.819C165.228 147.755 167.003 147.189 168.531 146.183V149.213L168.528 149.199ZM166.531 140.109C166.59 139.53 166.526 138.945 166.345 138.392C166.163 137.839 165.868 137.331 165.478 136.899C165.088 136.467 164.612 136.122 164.08 135.885C163.549 135.648 162.973 135.526 162.391 135.526C161.196 135.55 160.058 136.041 159.22 136.894C158.383 137.747 157.912 138.894 157.909 140.09H166.537L166.531 140.109ZM174.632 133.498H177.511V136.038H177.571C177.961 135.2 178.572 134.485 179.338 133.969C180.103 133.453 180.996 133.156 181.918 133.11C182.601 133.106 183.281 133.182 183.946 133.338V136.038C183.403 135.833 182.826 135.734 182.246 135.746C179.491 135.746 177.704 138.321 177.704 142.434V149.891H174.638V133.476L174.632 133.498ZM192.049 129.832H188.59V126.402H192.052V129.81L192.049 129.832ZM188.78 133.498H191.854V149.891H188.785V133.476L188.78 133.498ZM198.52 133.498H201.498V136.076H201.564C202.114 135.128 202.913 134.348 203.874 133.821C204.835 133.295 205.923 133.041 207.018 133.088C211.334 133.088 213.257 135.724 213.257 140.131V149.869H210.202V141.382C210.202 137.556 209.351 135.694 206.671 135.531C203.175 135.531 201.605 138.286 201.605 142.282V149.871H198.525V133.476L198.52 133.498ZM233.646 149.161C233.646 154.144 231.035 157 225.057 157C223.014 156.987 220.99 156.607 219.08 155.879L219.402 153.083C221.257 154.057 223.321 154.565 225.416 154.562C226.143 154.594 226.869 154.466 227.541 154.188C228.214 153.91 228.818 153.488 229.311 152.952C229.803 152.416 230.172 151.778 230.393 151.084C230.613 150.391 230.679 149.657 230.586 148.935V147.329H230.509C229.831 148.148 228.975 148.803 228.007 149.243C227.039 149.683 225.983 149.897 224.92 149.869C223.906 149.858 222.905 149.634 221.983 149.212C221.06 148.79 220.237 148.179 219.565 147.419C218.894 146.659 218.39 145.766 218.085 144.799C217.78 143.831 217.682 142.811 217.796 141.803C217.796 137.591 220.212 133.088 225.234 133.088C226.327 132.957 227.434 133.156 228.412 133.659C229.39 134.163 230.196 134.948 230.724 135.914H230.784V133.476H233.627V149.161H233.646ZM230.586 141.861C230.586 138.454 228.986 135.526 225.716 135.526C222.611 135.526 221.077 138.831 221.077 141.635C220.936 142.328 220.949 143.042 221.114 143.729C221.279 144.417 221.593 145.059 222.033 145.612C222.474 146.164 223.03 146.613 223.663 146.928C224.296 147.242 224.99 147.414 225.697 147.43C226.403 147.447 227.105 147.309 227.752 147.025C228.399 146.741 228.976 146.319 229.442 145.788C229.909 145.257 230.253 144.63 230.45 143.951C230.648 143.273 230.694 142.559 230.586 141.861ZM252.251 149.191C250.588 149.909 248.794 150.27 246.984 150.251C241.075 150.251 238.365 146.717 238.365 141.382C238.277 140.312 238.414 139.235 238.769 138.222C239.123 137.208 239.686 136.281 240.422 135.499C241.157 134.717 242.049 134.098 243.039 133.683C244.029 133.268 245.095 133.065 246.169 133.088C251.727 133.088 253.523 137.076 253.523 142.349H241.629C241.622 143.07 241.759 143.786 242.033 144.454C242.306 145.122 242.71 145.728 243.222 146.237C243.734 146.747 244.342 147.148 245.012 147.418C245.681 147.688 246.397 147.822 247.119 147.811C248.947 147.747 250.723 147.181 252.251 146.175V149.205V149.191ZM250.254 140.101C250.309 139.523 250.244 138.94 250.06 138.389C249.878 137.838 249.581 137.331 249.191 136.901C248.8 136.471 248.325 136.128 247.794 135.893C247.263 135.658 246.689 135.537 246.108 135.537C244.913 135.562 243.776 136.053 242.939 136.906C242.102 137.759 241.632 138.906 241.629 140.101H250.254ZM257.966 133.49H260.939V136.076H261.005C261.555 135.128 262.354 134.348 263.315 133.822C264.276 133.295 265.363 133.041 266.459 133.088C270.775 133.088 272.698 135.724 272.698 140.131V149.869H269.632V141.382C269.632 137.556 268.778 135.694 266.101 135.531C262.605 135.531 261.035 138.286 261.035 142.282V149.871H257.966V133.476V133.49ZM294.809 97.697C294.847 100.019 294.192 102.301 292.93 104.25C291.666 106.2 289.853 107.729 287.718 108.645C285.584 109.56 283.223 109.819 280.942 109.389C278.659 108.96 276.554 107.86 274.899 106.232C273.243 104.603 272.109 102.518 271.642 100.243C271.174 97.9678 271.394 95.6047 272.274 93.455C273.152 91.3051 274.654 89.4658 276.582 88.1706C278.51 86.8757 280.78 86.1838 283.102 86.1829C286.176 86.1601 289.137 87.358 291.33 89.514C293.522 91.67 294.77 94.6081 294.8 97.6833L294.809 97.697Z" fill="#D8172A"/>
</svg>
