<svg width="927" height="173" viewBox="0 0 927 173" fill="none" xmlns="http://www.w3.org/2000/svg">
<mask id="mask0_543_144" style="mask-type:luminance" maskUnits="userSpaceOnUse" x="0" y="0" width="927" height="173">
<path d="M927 0H0V172.363H927V0Z" fill="white"/>
</mask>
<g mask="url(#mask0_543_144)">
<mask id="mask1_543_144" style="mask-type:luminance" maskUnits="userSpaceOnUse" x="0" y="0" width="927" height="173">
<path d="M927 0H0V172.363H927V0Z" fill="white"/>
</mask>
<g mask="url(#mask1_543_144)">
<path d="M249.893 88.3377C249.686 88.7268 249.378 89.0524 249 89.2796C240.934 92.3768 232.359 93.9404 223.719 93.8898C198.486 93.8898 177.567 76.5891 177.567 50.3654C177.567 22.0597 199.032 7.43593 223.372 7.43593C232.043 7.40742 240.645 8.97003 248.753 12.0461C249.135 12.2889 249.444 12.6318 249.645 13.0376C249.645 18.7384 250.587 27.0665 251.033 33.2135C250.207 33.4546 249.361 33.6205 248.505 33.7092C247.018 33.7092 246.423 33.7092 246.076 32.2716C245.356 27.2895 242.813 22.7519 238.939 19.5374C235.065 16.3229 230.136 14.6604 225.107 14.8718C207.31 14.8718 199.874 29.2477 199.874 47.7381C199.874 70.8388 211.375 86.3053 227.883 86.3053C238.789 86.3053 243.944 79.6626 247.265 68.9054C247.612 67.7157 248.306 67.4679 249.794 67.567C250.618 67.6503 251.432 67.8164 252.223 68.0627C251.429 74.2097 250.488 82.5378 249.942 88.2386" fill="#004B96"/>
<path d="M304.424 93.8911C298.667 94.0886 292.93 93.1077 287.565 91.0086C282.201 88.9094 277.322 85.7363 273.228 81.6839C269.134 77.6315 265.911 72.7853 263.757 67.4426C261.603 62.0999 260.563 56.3735 260.701 50.6146C260.446 44.8596 261.395 39.1146 263.487 33.7473C265.579 28.38 268.769 23.5085 272.851 19.4444C276.934 15.3803 281.82 12.2132 287.197 10.1456C292.574 8.07805 298.323 7.15557 304.077 7.43719C309.848 7.26697 315.593 8.27488 320.962 10.3994C326.33 12.5239 331.21 15.7203 335.301 19.7936C339.393 23.8669 342.612 28.7315 344.761 34.0903C346.91 39.4491 347.944 45.1897 347.8 50.9616C347.8 76.4417 329.904 93.8911 304.424 93.8911ZM303.036 14.5756C287.867 14.5756 282.81 32.2233 282.81 48.6813C282.81 66.0811 289.453 87.0997 305.564 87.0997C320.733 87.0997 325.641 69.6007 325.641 53.1428C325.641 35.7429 319.097 14.5756 303.036 14.5756Z" fill="#004B96"/>
<path d="M439.458 14.1278L435.542 14.8714C431.626 15.615 430.833 19.4816 430.833 34.7003V66.6248C430.833 77.1341 431.427 87.1973 431.973 92.5015C427.97 92.8961 423.945 93.012 419.927 92.8485C419.472 92.8626 419.024 92.7434 418.636 92.5055C418.248 92.2677 417.939 91.9216 417.746 91.51C415.59 88.0856 413.257 84.7763 410.756 81.5956L372.635 33.9567L373.081 62.0146C373.081 81.2486 374.37 85.6109 379.872 86.5528L384.83 87.3955C385.97 87.3955 386.218 88.387 386.218 89.8246C386.176 90.5941 386.059 91.3577 385.871 92.1049C380.12 92.1049 375.411 91.7579 369.809 91.7579C364.208 91.7579 359.597 91.7579 353.847 92.1049C353.658 91.3577 353.542 90.5941 353.5 89.8246C353.5 88.387 353.847 87.6434 354.987 87.3955L359.003 86.652C362.919 85.9084 363.613 82.0417 363.613 66.8231V26.2235C363.863 23.3444 363.186 20.4607 361.679 17.9945C361 17.0815 360.128 16.3287 359.126 15.7891C358.124 15.2495 357.016 14.9362 355.879 14.8714L352.806 14.3757C351.666 14.3757 351.319 13.3843 351.319 11.9467C351.362 11.0955 351.478 10.2497 351.666 9.41848C357.168 9.41848 361.58 9.76549 366.141 9.76549C371.643 9.76549 376.055 9.76549 381.013 9.41848C381.458 9.54215 381.877 9.74354 382.252 10.0133C385.338 15.2046 388.784 20.1739 392.563 24.885L421.364 61.271V39.6575C421.116 20.3244 420.175 15.962 414.672 14.8714L409.715 14.0287C408.575 14.0287 408.228 13.0372 408.228 11.5997C408.27 10.8302 408.386 10.0665 408.575 9.31934C414.325 9.31934 419.134 9.66634 424.785 9.66634C430.436 9.66634 434.699 9.66634 440.648 9.31934C440.837 10.0665 440.953 10.8301 440.995 11.5997C440.995 13.0372 440.648 13.7808 439.508 14.0287" fill="#004B96"/>
<path d="M517.88 88.3377C517.662 88.735 517.335 89.0617 516.938 89.2796C508.889 92.3775 500.331 93.9412 491.706 93.8898C466.474 93.8898 445.554 76.5891 445.554 50.3654C445.554 22.0597 467.019 7.43593 491.359 7.43593C500.03 7.40742 508.633 8.97003 516.74 12.0461C517.122 12.2889 517.431 12.6318 517.632 13.0376C517.632 18.7384 518.574 27.0665 519.02 33.2135C518.194 33.4554 517.348 33.6213 516.492 33.7092C515.005 33.7092 514.41 33.7092 514.063 32.2716C513.343 27.2895 510.8 22.7519 506.926 19.5374C503.052 16.3229 498.123 14.6604 493.094 14.8718C475.298 14.8718 467.812 29.2477 467.812 47.7381C467.812 70.8388 479.313 86.3053 495.82 86.3053C506.726 86.3053 511.882 79.6626 515.203 68.9054C515.55 67.7157 516.244 67.4679 517.731 67.567C518.555 67.6516 519.369 67.8177 520.16 68.0627C519.367 74.2097 518.425 82.5378 517.88 88.2386" fill="#004B96"/>
<path d="M572.409 93.8911C566.652 94.0886 560.915 93.1077 555.55 91.0086C550.186 88.9094 545.307 85.7363 541.213 81.6839C537.119 77.6315 533.896 72.7853 531.741 67.4426C529.587 62.0999 528.548 56.3735 528.686 50.6146C528.431 44.8596 529.38 39.1146 531.472 33.7473C533.564 28.38 536.754 23.5085 540.836 19.4444C544.919 15.3803 549.805 12.2132 555.182 10.1456C560.559 8.07805 566.308 7.15557 572.062 7.43719C577.833 7.26697 583.578 8.27488 588.947 10.3994C594.315 12.5239 599.194 15.7203 603.286 19.7936C607.378 23.8669 610.597 28.7315 612.746 34.0903C614.894 39.4491 615.928 45.1897 615.785 50.9616C615.785 76.4417 597.889 93.8911 572.409 93.8911ZM571.021 14.5756C555.852 14.5756 550.795 32.2233 550.795 48.6813C550.795 66.0811 557.438 87.0997 573.549 87.0997C588.718 87.0997 593.626 69.6007 593.626 53.1428C593.626 35.7429 587.082 14.5756 571.021 14.5756Z" fill="#004B96"/>
<path d="M705.164 92.104C703.231 92.104 695.249 91.6083 691.482 91.6083C687.714 91.6083 680.923 91.6083 676.908 91.9553C670.017 84.1229 662.68 69.3504 655.889 55.4702C655.653 55.194 655.387 54.9446 655.096 54.7266H651.527C651.214 54.9736 651.003 55.3261 650.932 55.718V75.5469C650.932 83.875 650.932 86.3041 653.807 86.7998L657.922 87.4938C659.062 87.4938 659.31 88.4852 659.31 89.9228C659.38 90.6813 659.38 91.4447 659.31 92.2032C653.46 92.2032 646.57 91.8562 640.968 91.8562C635.366 91.8562 628.129 91.8562 622.279 92.2032C622.211 91.4446 622.211 90.6814 622.279 89.9228C622.279 88.4852 622.279 87.7417 623.667 87.4938L627.782 86.7998C630.657 86.3041 630.756 83.875 630.756 75.5469V26.0739C630.756 17.7457 630.756 15.3167 627.782 14.821L623.667 14.0774C622.527 14.0774 622.279 13.0859 622.279 11.6483C622.211 10.8898 622.211 10.1266 622.279 9.36802C628.129 9.36802 632.491 9.71503 638.142 9.71503C645.925 9.91332 659.31 8.92188 664.267 8.92188C681.171 8.92188 691.482 16.6551 691.482 30.7832C691.333 35.2304 689.774 39.515 687.029 43.0173C684.284 46.5195 680.496 49.0578 676.214 50.2651C676.214 50.7608 676.214 50.7608 676.214 51.2565C680.423 59.0717 685.057 66.6511 690.094 73.9606C696.984 84.1229 699.067 86.4032 702.487 86.9981L704.321 87.3451C705.461 87.3451 705.709 88.3365 705.709 89.7741C705.664 90.5433 705.548 91.3067 705.362 92.0544M656.93 15.4654C655.32 15.4365 653.721 15.7228 652.221 16.3081C650.961 20.1224 650.522 24.1599 650.932 28.1559V47.9848C650.978 48.1352 651.054 48.2745 651.157 48.394C651.259 48.5134 651.385 48.6104 651.527 48.6788H656.831C664.168 48.6788 670.017 43.7216 670.017 32.8652C670.017 19.8278 663.474 15.5645 656.93 15.5645" fill="#004B96"/>
<path d="M784.529 79.3154C780.515 83.4458 775.679 86.6875 770.334 88.8309C764.988 90.9742 759.252 91.9715 753.497 91.7581H725.241C719.391 91.7581 712.154 91.7581 708.931 92.1051C708.861 91.3466 708.861 90.5832 708.931 89.8248C708.931 88.3872 708.931 87.6436 710.319 87.3957L714.434 86.6521C717.309 86.1564 717.408 83.7274 717.408 75.3992V25.8271C717.408 17.4989 717.408 15.0699 714.434 14.5742L710.319 13.8306C709.179 13.8306 708.931 12.9879 708.931 11.5503C708.859 10.7422 708.859 9.92931 708.931 9.12123C711.658 9.12123 719.143 9.61695 724.2 9.61695C733.371 9.61695 741.203 8.17936 751.316 8.17936C757.407 7.82603 763.506 8.72595 769.236 10.8235C774.966 12.921 780.205 16.1715 784.628 20.3741C792.036 28.4673 795.954 39.1542 795.534 50.1174C795.674 60.9309 791.685 71.3908 784.38 79.365M748.242 15.9622C745.084 15.9107 741.938 16.3625 738.923 17.3006C738.328 18.3912 737.981 19.4818 737.981 27.5621V70.9873C737.981 81.8436 739.369 84.2727 743.731 84.2727H750.82C761.379 84.2727 773.326 76.1924 773.326 52.4969C773.326 27.1159 762.073 16.0118 748.193 16.0118" fill="#004B96"/>
<path d="M839.406 92.1044C833.557 92.1044 826.666 91.7574 821.015 91.7574C815.364 91.7574 808.176 91.7574 802.326 92.1044C802.258 91.3458 802.258 90.5827 802.326 89.8241C802.326 88.3865 802.326 87.6429 803.714 87.395L807.829 86.6514C810.704 86.1557 810.803 83.7267 810.803 75.3986V26.0742C810.803 17.7461 810.803 15.3171 807.829 14.8213L803.714 14.1273C802.574 14.1273 802.326 13.1359 802.326 11.6983C802.258 10.9397 802.258 10.1766 802.326 9.41797C808.176 9.41797 815.066 9.76497 820.718 9.76497C826.369 9.76497 833.557 9.76497 839.406 9.41797C839.474 10.1766 839.474 10.9397 839.406 11.6983C839.406 13.1359 839.406 13.8795 838.018 14.1273L833.904 14.8213C831.029 15.3171 831.029 17.7461 831.029 26.0742V75.3986C831.029 83.7267 831.029 86.1557 833.904 86.6514L838.018 87.395C839.158 87.395 839.406 88.3865 839.406 89.8241C839.474 90.5827 839.474 91.3458 839.406 92.1044Z" fill="#004B96"/>
<path d="M926.654 92.1046C921.003 92.1046 913.22 91.7576 907.817 91.7576C902.413 91.7576 893.936 91.7576 888.285 92.1046C888.099 91.3569 887.983 90.5935 887.938 89.8243C887.938 88.3867 887.938 87.6431 889.326 87.3953L892.796 86.8004C895.225 86.3047 896.266 85.6107 896.266 83.9252C895.543 80.1739 894.499 76.492 893.143 72.9202L890.516 65.0382C890.422 64.8537 890.289 64.6918 890.126 64.5634C889.964 64.4351 889.775 64.3434 889.574 64.2946H866.721C866.275 64.2946 866.126 64.6416 865.928 65.0382L863.499 72.9202C860.971 81.2483 861.863 86.1064 866.226 86.8004L869.894 87.3953C871.034 87.3953 871.282 88.3867 871.282 89.8243C871.24 90.5938 871.124 91.3574 870.935 92.1046C865.333 92.1046 862.309 91.7576 857.055 91.7576C851.8 91.7576 849.47 91.7576 843.868 92.1046C843.68 91.3574 843.564 90.5938 843.521 89.8243C843.521 88.3867 843.521 87.6431 844.909 87.3953L846.545 87.0482C849.52 86.3047 851.503 83.2808 854.675 72.7715L870.538 23.4471C871.067 21.8447 871.367 20.176 871.431 18.4899C871.49 18.0789 871.49 17.6616 871.431 17.2506C872.472 14.7224 874.901 14.8216 881.345 11.3019C887.789 7.78232 887.889 6.34473 890.169 6.34473C890.566 6.3543 890.957 6.44755 891.316 6.61839C891.674 6.78922 891.993 7.03381 892.251 7.33617C893.907 13.6175 895.943 19.7923 898.348 25.8266L915.699 72.7219C919.615 83.4791 920.656 86.156 923.828 86.85L925.663 87.3457C926.803 87.3457 927.15 88.3371 927.15 89.7747C927.11 90.5445 926.994 91.3083 926.803 92.055M877.726 26.2232H877.429L868.605 55.9665C868.729 56.3207 868.975 56.6193 869.299 56.8092H887.095C887.419 56.6193 887.665 56.3207 887.789 55.9665L877.726 26.2232Z" fill="#004B96"/>
<path d="M226.248 113.472H231.701L213.26 158.731H207.361L190.11 113.472H196.505L210.881 151.444L226.248 113.472Z" fill="#1D1D1B"/>
<path d="M280.034 150.354H285.437V150.652C285.373 152.267 284.781 153.817 283.752 155.063C282.599 156.584 281.058 157.766 279.29 158.484C277.259 159.303 275.085 159.708 272.895 159.674C270.756 159.779 268.622 159.386 266.661 158.526C264.699 157.665 262.964 156.361 261.593 154.716C258.906 151.143 257.454 146.794 257.454 142.323C257.454 137.853 258.906 133.504 261.593 129.93C263.704 127.495 266.574 125.842 269.741 125.239C272.907 124.636 276.184 125.119 279.042 126.609C281.068 127.744 282.695 129.474 283.702 131.566C284.995 134.549 285.588 137.787 285.437 141.035V142.819H262.981C262.848 145.925 263.814 148.979 265.707 151.445C266.62 152.56 267.782 153.446 269.099 154.032C270.416 154.617 271.852 154.886 273.292 154.816C275.055 154.937 276.806 154.446 278.249 153.428C278.726 153.066 279.116 152.602 279.39 152.07C279.665 151.539 279.817 150.952 279.835 150.354H280.034ZM263.328 138.804H280.48V138.159C280.478 136.628 280.122 135.118 279.439 133.747C278.815 132.413 277.793 131.305 276.514 130.575C275.173 129.86 273.671 129.502 272.152 129.534C271.127 129.554 270.116 129.78 269.18 130.197C268.243 130.614 267.4 131.215 266.699 131.963C264.878 133.828 263.698 136.224 263.328 138.804Z" fill="#1D1D1B"/>
<path d="M321.328 158.63H315.875V126.161H321.278V131.911C322.041 130.448 323.066 129.137 324.302 128.044C325.336 127.163 326.509 126.46 327.772 125.962C328.973 125.497 330.252 125.261 331.54 125.268C332.553 125.248 333.562 125.416 334.514 125.764V131.366C333.211 130.753 331.79 130.432 330.35 130.424C328.051 130.506 325.869 131.464 324.253 133.101C323.141 134.403 322.308 135.92 321.805 137.557C321.302 139.194 321.14 140.916 321.328 142.619V158.63Z" fill="#1D1D1B"/>
<path d="M359.249 150.153H364.652C364.64 150.813 364.776 151.468 365.051 152.068C365.325 152.669 365.731 153.2 366.239 153.623C367.823 154.701 369.734 155.192 371.642 155.011C373.542 155.186 375.446 154.714 377.045 153.673C377.666 153.231 378.177 152.653 378.538 151.983C378.899 151.312 379.101 150.567 379.127 149.806C379.127 147.79 377.772 146.369 375.062 145.543L372.286 144.7L370.452 143.758L366.833 142.767C365.048 142.359 363.449 141.367 362.291 139.949C361.133 138.53 360.481 136.765 360.439 134.934C360.444 133.645 360.725 132.372 361.264 131.2C361.802 130.029 362.586 128.986 363.562 128.143C366.144 126.017 369.447 124.97 372.782 125.218C375.853 124.916 378.922 125.803 381.358 127.697C382.144 128.387 382.778 129.232 383.222 130.179C383.666 131.126 383.909 132.154 383.936 133.199H378.483C378.48 132.659 378.325 132.131 378.035 131.675C377.746 131.22 377.334 130.854 376.847 130.622C375.498 129.937 373.996 129.612 372.485 129.68C370.729 129.56 368.984 130.031 367.527 131.018C366.996 131.395 366.561 131.892 366.26 132.47C365.958 133.047 365.798 133.688 365.792 134.34C365.773 134.809 365.861 135.276 366.05 135.705C366.239 136.135 366.524 136.516 366.883 136.818C368.013 137.627 369.294 138.2 370.65 138.504L373.278 139.247L375.162 139.792C376.844 140.224 378.499 140.753 380.119 141.379C380.799 141.715 381.446 142.113 382.052 142.569C382.934 143.224 383.634 144.094 384.085 145.097C384.536 146.197 384.756 147.378 384.729 148.567C384.757 150.013 384.48 151.449 383.916 152.782C383.352 154.114 382.515 155.313 381.457 156.3C378.798 158.638 375.325 159.831 371.791 159.621C369.482 159.781 367.166 159.443 364.999 158.63C363.331 157.906 361.879 156.762 360.786 155.309C359.718 153.88 359.159 152.135 359.199 150.351L359.249 150.153Z" fill="#1D1D1B"/>
<path d="M413.977 113.472H419.38V118.974H413.977V113.472ZM413.977 126.162H419.38V158.632H413.977V126.162Z" fill="#1D1D1B"/>
<path d="M470.936 150.352H476.389V150.649C476.329 152.265 475.737 153.816 474.704 155.061C473.575 156.564 472.071 157.744 470.342 158.481C468.282 159.322 466.071 159.727 463.848 159.671C461.758 159.802 459.665 159.46 457.725 158.67C455.785 157.881 454.049 156.664 452.644 155.11C449.849 151.511 448.457 147.019 448.728 142.47C448.453 137.92 449.845 133.426 452.644 129.829C454.051 128.278 455.788 127.063 457.727 126.274C459.666 125.485 461.758 125.141 463.848 125.268C466.071 125.212 468.282 125.617 470.342 126.458C472.036 127.162 473.533 128.268 474.704 129.68C475.786 130.954 476.383 132.569 476.389 134.241V134.538H470.936V134.241C470.953 133.629 470.817 133.023 470.54 132.478C470.263 131.932 469.854 131.465 469.35 131.118C467.884 130.151 466.146 129.682 464.393 129.779C463.087 129.757 461.792 130.015 460.594 130.537C459.397 131.059 458.326 131.831 457.453 132.803C455.33 135.556 454.321 139.007 454.627 142.47C454.267 146.014 455.278 149.562 457.453 152.384C458.326 153.356 459.397 154.128 460.594 154.65C461.792 155.172 463.087 155.43 464.393 155.408C466.147 155.516 467.889 155.046 469.35 154.069C469.845 153.71 470.25 153.242 470.534 152.7C470.818 152.158 470.973 151.558 470.986 150.946L470.936 150.352Z" fill="#1D1D1B"/>
<path d="M510.594 158.631H505.191V111.537H510.594V131.663C511.487 130.19 512.608 128.868 513.916 127.747C514.931 126.93 516.068 126.277 517.287 125.814C518.543 125.367 519.869 125.148 521.203 125.169C523.11 125.134 524.998 125.559 526.705 126.409C528.31 127.236 529.624 128.533 530.473 130.127C531.525 132.579 531.984 135.246 531.811 137.91V158.631H526.457V140.339C526.546 138.255 526.346 136.17 525.863 134.142C525.51 132.935 524.713 131.908 523.632 131.267C522.518 130.57 521.227 130.209 519.914 130.226C518.29 130.228 516.703 130.711 515.353 131.614C513.867 132.585 512.668 133.937 511.883 135.53C510.902 137.794 510.461 140.255 510.594 142.718V158.631Z" fill="#1D1D1B"/>
<path d="M583.167 150.354H588.57V150.652C588.507 152.267 587.914 153.817 586.885 155.063C585.732 156.584 584.191 157.766 582.423 158.484C580.393 159.305 578.218 159.709 576.029 159.674C573.89 159.779 571.755 159.386 569.794 158.526C567.832 157.665 566.098 156.361 564.726 154.716C562.04 151.143 560.587 146.794 560.587 142.323C560.587 137.853 562.04 133.504 564.726 129.93C566.837 127.495 569.708 125.842 572.874 125.239C576.04 124.636 579.317 125.119 582.176 126.609C584.201 127.744 585.828 129.474 586.835 131.566C588.128 134.549 588.722 137.787 588.57 141.035V142.819H566.114C565.982 145.925 566.947 148.979 568.841 151.445C569.753 152.56 570.915 153.446 572.232 154.032C573.549 154.617 574.986 154.886 576.425 154.816C578.188 154.937 579.939 154.446 581.382 153.428C581.859 153.066 582.249 152.602 582.523 152.07C582.798 151.539 582.95 150.952 582.969 150.354H583.167ZM566.461 138.804H583.613V138.159C583.612 136.628 583.255 135.118 582.572 133.747C581.951 132.412 580.928 131.303 579.647 130.575C578.306 129.86 576.804 129.502 575.285 129.534C574.26 129.554 573.25 129.78 572.313 130.197C571.377 130.614 570.533 131.215 569.832 131.963C568.048 133.841 566.903 136.236 566.56 138.804" fill="#1D1D1B"/>
<path d="M624.61 158.63H619.207V126.161H624.61V131.911C625.375 130.449 626.4 129.139 627.634 128.044C628.667 127.162 629.84 126.458 631.104 125.962C632.305 125.497 633.584 125.261 634.872 125.268C635.885 125.248 636.894 125.416 637.846 125.764V131.366C636.543 130.753 635.122 130.432 633.682 130.424C631.383 130.506 629.201 131.464 627.585 133.101C626.471 134.402 625.636 135.918 625.133 137.556C624.63 139.193 624.469 140.916 624.66 142.619L624.61 158.63Z" fill="#1D1D1B"/>
<path d="M685.484 126.162H690.887V158.632H685.484V153.03C684.573 154.505 683.436 155.827 682.113 156.946C681.08 157.778 679.927 158.447 678.692 158.929C677.474 159.394 676.179 159.63 674.875 159.623C672.06 159.696 669.307 158.785 667.092 157.046C665.847 155.66 664.918 154.02 664.371 152.239C663.823 150.459 663.669 148.581 663.92 146.735V126.162H669.224V144.553C669.224 149.312 669.868 152.188 671.157 153.179C672.584 154.241 674.339 154.767 676.114 154.666C677.776 154.66 679.398 154.159 680.774 153.229C682.268 152.244 683.467 150.873 684.244 149.263C685.207 147.028 685.648 144.604 685.533 142.174L685.484 126.162Z" fill="#1D1D1B"/>
<path d="M726.926 158.632H721.522V126.162H726.926V131.813C727.819 130.34 728.94 129.018 730.247 127.897C731.262 127.08 732.4 126.427 733.618 125.964C734.874 125.517 736.201 125.298 737.534 125.319C739.441 125.284 741.329 125.709 743.037 126.559C744.642 127.386 745.956 128.683 746.804 130.277C747.857 132.729 748.315 135.396 748.143 138.06V158.632H742.739V140.34C742.828 138.257 742.628 136.172 742.145 134.143C741.78 132.929 740.964 131.9 739.864 131.268C738.763 130.585 737.492 130.225 736.196 130.227C734.572 130.23 732.985 130.713 731.635 131.615C730.149 132.586 728.95 133.939 728.165 135.531C727.184 137.795 726.743 140.256 726.876 142.719L726.926 158.632Z" fill="#1D1D1B"/>
<path d="M801.136 151.841C800.171 153.851 798.681 155.564 796.823 156.798C794.94 157.981 792.751 158.584 790.528 158.533C788.681 158.568 786.852 158.174 785.183 157.383C783.514 156.592 782.052 155.424 780.91 153.972C778.269 150.548 776.933 146.295 777.143 141.976C777.098 138.918 777.672 135.883 778.828 133.053C779.815 130.585 781.548 128.488 783.786 127.055C785.935 125.703 788.435 125.013 790.974 125.072C792.876 125.034 794.76 125.441 796.476 126.262C798.524 127.464 800.231 129.171 801.433 131.219V126.162H806.837V152.783C807.25 157.299 806.535 161.847 804.755 166.018C803.474 168.143 801.618 169.862 799.401 170.976C797.02 172.051 794.428 172.576 791.816 172.512C789.352 172.553 786.901 172.15 784.579 171.323C782.656 170.712 780.94 169.579 779.622 168.051C778.576 166.853 777.98 165.328 777.936 163.738V163.242H783.24V163.589C783.255 164.33 783.483 165.051 783.896 165.666C784.309 166.282 784.89 166.765 785.57 167.059C787.412 167.987 789.459 168.431 791.519 168.348C793.225 168.391 794.918 168.053 796.476 167.357C797.916 166.648 799.095 165.503 799.847 164.085C800.902 161.477 801.343 158.662 801.136 155.856V151.841ZM801.136 141.431C801.286 138.376 800.336 135.368 798.459 132.954C797.696 131.947 796.711 131.131 795.58 130.569C794.449 130.007 793.203 129.715 791.94 129.715C790.677 129.715 789.432 130.007 788.301 130.569C787.17 131.131 786.184 131.947 785.422 132.954C783.52 135.619 782.593 138.857 782.794 142.125C782.746 144.351 783.098 146.567 783.835 148.668C784.428 150.41 785.578 151.908 787.107 152.931C788.574 153.905 790.304 154.407 792.064 154.369C793.395 154.384 794.708 154.06 795.879 153.427C797.05 152.794 798.04 151.872 798.757 150.75C800.575 147.974 801.476 144.697 801.334 141.381" fill="#1D1D1B"/>
<path d="M858.244 150.354H863.648V150.652C863.584 152.267 862.992 153.817 861.962 155.063C860.81 156.584 859.268 157.766 857.501 158.484C855.47 159.305 853.296 159.709 851.106 159.674C848.967 159.779 846.832 159.386 844.871 158.526C842.91 157.665 841.175 156.361 839.803 154.716C837.117 151.143 835.664 146.794 835.664 142.323C835.664 137.853 837.117 133.504 839.803 129.93C841.914 127.495 844.785 125.842 847.951 125.239C851.118 124.636 854.395 125.119 857.253 126.609C859.278 127.744 860.905 129.474 861.913 131.566C863.205 134.549 863.799 137.787 863.648 141.035V142.819H840.993C840.861 145.925 841.826 148.979 843.72 151.445C844.632 152.56 845.794 153.446 847.111 154.032C848.428 154.617 849.864 154.886 851.304 154.816C853.067 154.937 854.818 154.446 856.261 153.428C856.738 153.066 857.128 152.602 857.402 152.07C857.677 151.539 857.829 150.952 857.848 150.354H858.244ZM841.538 138.804H858.69V138.159C858.658 136.658 858.285 135.183 857.6 133.847C856.978 132.511 855.956 131.402 854.675 130.674C853.334 129.959 851.832 129.601 850.313 129.633C849.288 129.654 848.277 129.879 847.341 130.296C846.404 130.713 845.561 131.314 844.86 132.062C843.076 133.941 841.93 136.335 841.588 138.903" fill="#1D1D1B"/>
<path d="M899.487 158.632H894.083V126.162H899.487V131.813C900.382 130.342 901.502 129.02 902.808 127.897C903.823 127.08 904.961 126.427 906.179 125.964C907.436 125.517 908.762 125.298 910.095 125.319C912.002 125.284 913.89 125.709 915.598 126.559C917.203 127.386 918.517 128.683 919.365 130.277C920.418 132.729 920.876 135.396 920.704 138.06V158.632H915.3V140.34C915.386 138.257 915.186 136.172 914.706 134.143C914.341 132.929 913.525 131.9 912.425 131.268C911.324 130.585 910.053 130.225 908.757 130.227C907.133 130.23 905.546 130.713 904.196 131.615C902.71 132.586 901.511 133.939 900.726 135.531C899.745 137.795 899.304 140.256 899.437 142.719L899.487 158.632Z" fill="#1D1D1B"/>
<path d="M0 3.12305V88.7838C0.743583 127.748 30.9826 155.657 74.1104 167.356C115.255 155.31 146.982 127.698 148.221 88.7838V3.12305C148.221 3.12305 110.992 0 74.1104 0C37.2287 0 0 3.12305 0 3.12305Z" fill="#004B96"/>
<path d="M76.2925 96.1209L104.35 122.543L123.634 103.011L96.3692 77.333L76.4908 96.0713L76.2925 96.1209Z" fill="white"/>
<path fill-rule="evenodd" clip-rule="evenodd" d="M44.1182 57.4545L39.161 44.8631C39.0315 44.4917 38.932 44.1104 38.8636 43.723C38.8636 42.335 39.161 41.2939 40.3012 41.2939C42.2345 41.2939 42.7302 43.2273 43.0772 43.6238C46.1769 48.3185 48.2232 53.6288 49.0755 59.1895C49.3916 61.7895 48.8891 64.4235 47.6379 66.7245C47.401 67.166 47.2815 67.6611 47.2909 68.1621C47.2909 68.9552 47.7866 68.9057 48.3815 69.6988L51.8515 73.0697L72.0274 53.9348L55.1233 37.8735C49.0755 32.0735 48.6293 30.5863 42.1354 28.9505C39.8543 28.6644 37.539 28.8372 35.3256 29.4586C33.1123 30.0801 31.0454 31.1377 29.2466 32.5692C26.4106 35.3107 23.2471 37.6916 19.8279 39.6581C19.1339 39.9059 18.539 40.2034 18.3903 40.9965C18.2821 41.6297 18.4053 42.2807 18.7373 42.8307C19.0843 43.6238 19.5304 43.8221 20.0757 44.4666L40.7969 64.2954L44.1182 59.8339C44.306 59.5191 44.4051 59.1594 44.4051 58.7929C44.4051 58.4264 44.306 58.0667 44.1182 57.7519" fill="white"/>
<path fill-rule="evenodd" clip-rule="evenodd" d="M104.102 57.4546L109.06 44.8632C109.189 44.4918 109.289 44.1105 109.357 43.7231C109.357 42.3351 109.06 41.294 107.919 41.294C105.986 41.294 105.49 43.2274 105.143 43.6239C102.048 48.3208 100.002 53.6301 99.1452 59.1896C98.8356 61.7894 99.3378 64.4213 100.583 66.7246C100.82 67.1661 100.939 67.6612 100.93 68.1622C100.93 68.9553 100.434 68.9058 99.8392 69.6989L43.7731 122.592L25.6792 102.466L93.0974 38.0223C99.1452 32.0736 99.5418 30.8839 106.036 29.248C108.297 28.9177 110.601 29.0413 112.814 29.6116C115.027 30.1818 117.104 31.1873 118.924 32.5693C121.882 35.2522 125.104 37.6273 128.542 39.6582C129.236 39.9556 129.83 40.2035 129.979 40.9966C130.087 41.6298 129.964 42.2808 129.632 42.8308C129.285 43.6239 128.839 43.8222 128.294 44.4667L107.572 64.2955L104.102 59.487C103.915 59.1722 103.816 58.8125 103.816 58.446C103.816 58.0795 103.915 57.7198 104.102 57.405" fill="white"/>
<path d="M74.0602 161.06H73.2175C31.6264 149.659 6.44375 122.394 5.79932 88.1892V8.8737H8.62493C8.97194 8.8737 41.5409 6.09766 73.6141 6.09766H74.3577C106.58 6.09766 139.496 8.8737 139.843 8.8737H142.668V87.8918C141.627 121.403 116.395 148.618 75.2004 160.812L74.0602 161.06ZM11.9958 14.5745V87.8918C12.5907 118.974 35.7409 143.76 74.0107 154.566C112.033 143.066 135.232 118.131 136.174 87.7926V14.5745C127.549 13.9301 100.581 12.0463 74.0602 12.0463H73.5645C47.2417 12.0463 20.5718 13.9301 11.9463 14.5745" fill="white"/>
</g>
</g>
</svg>
