<svg width="390" height="99" viewBox="0 0 390 99" fill="none" xmlns="http://www.w3.org/2000/svg">
<path fill-rule="evenodd" clip-rule="evenodd" d="M2.42165 27.4094C5.35197 27.4094 7.39395 28.0294 8.66197 29.296C10.0809 30.7134 10.7161 33.0547 10.7161 36.8863V84.7451C10.7161 91.3678 9.3264 94.3218 1.12442 94.3218H0V97.2587H36.8602V94.3364L35.748 94.3218C27.6239 94.2245 26.2536 91.2876 26.2536 84.7451V36.8839C26.2536 33.0644 26.8864 30.7329 28.3053 29.3179C29.5855 28.0318 31.664 27.407 34.6552 27.407H36.8578V24.4287H0V27.407H2.42165V27.4094Z" fill="#091C5A"/>
<path fill-rule="evenodd" clip-rule="evenodd" d="M120.311 72.8447C120.311 72.8447 119.671 69.8567 119.578 68.184V46.3248C119.435 33.5779 121.175 27.2324 110.018 27.281V24.417H135.683V27.281C124.193 27.2348 125.639 33.5803 125.573 46.3248V97.3661L121.92 97.3272L66.4992 39.391C66.4992 39.391 67.1223 42.3741 67.2148 44.0492V79.8442C66.9008 92.9024 68.5193 94.4802 76.9403 94.3271V97.3102H50.1854V94.3271C58.6185 94.3368 60.276 93.216 60.2662 78.7793V79.6424V44.3653L60.1981 38.7661C60.5121 31.5186 57.8324 27.315 49.6523 27.3831V24.5167H74.285L120.311 72.8447Z" fill="#091C5A"/>
<path fill-rule="evenodd" clip-rule="evenodd" d="M213.215 23.0264H210.387L210.255 23.994C210.063 25.4381 209.493 27.8572 207.846 27.8572C207.376 27.8572 206.205 27.636 204.886 27.033C199.157 24.5532 191.734 23.0264 185.484 23.0264C173.322 23.0264 162.289 27.3783 154.409 35.2846C147.171 42.5492 143.211 52.437 143.267 63.1222C143.318 73.3577 147.346 81.7771 155.592 88.8739C163.898 95.9731 173.205 98.9999 186.73 98.9999C197.996 98.9999 204.446 97.3832 214.344 92.0758L216.077 91.1373V72.04C216.077 63.9002 217.075 62.6336 223.704 62.3661L224.783 62.3248V59.4876H192.393V62.3248L193.472 62.3661C200.856 62.653 202.25 63.9756 202.25 70.7053V88.4022C196.772 92.0126 192.79 93.3838 187.769 93.3838C180.339 93.3838 173.726 90.5149 168.649 85.4482C162.703 79.5039 159.802 70.8463 159.802 61.063C159.802 50.5236 162.611 41.5329 168.398 35.7563C173.006 31.154 179.124 28.5988 186.104 28.5988C192.34 28.5988 199.583 31.2707 204.55 35.2068C208.59 38.5109 210.686 41.708 212.268 46.991L212.509 47.7909H215.274L213.215 23.0264Z" fill="#091C5A"/>
<path fill-rule="evenodd" clip-rule="evenodd" d="M355.08 97.062C356.881 96.7897 358.791 96.831 360.227 95.5133C366.312 96.4469 372.479 94.9444 377.262 91.5966C379.781 89.5665 382.051 87.2106 383.889 84.6359C385.505 82.37 386.78 80.2573 387.605 77.7191C388.221 76.1534 388.708 74.5244 389.075 72.8518C390.811 64.9648 389.898 56.1443 387.328 48.644C386.858 47.2509 386.32 45.9016 385.736 44.6154C382.528 37.9928 378.162 30.8474 371.44 26.6584C367.653 24.3001 364.168 20.6508 362.028 16.8726C360.865 15.8272 359.75 14.4414 358.246 14.191C358.657 14.8693 359.11 15.533 359.222 16.3256L359.135 16.4375C357.538 16.4836 356.287 15.64 355.194 14.6189L356.399 13.5273C355.944 13.2963 355.423 13.2088 354.919 13.0921C350.322 12.5694 346.54 14.6894 342.46 15.7105L342.397 15.9366C344.902 17.0501 345.425 19.8071 346.883 21.6719C347.243 21.2391 347.859 21.5552 348.362 21.5163C349.09 21.5576 349.774 22.0828 350.48 21.898C350.502 21.2902 350.159 20.8064 350.049 20.2618C350.48 20.0576 351.003 20.2375 351.485 20.2618C352.804 21.0325 354.919 20.1256 355.742 21.898C354.238 21.9928 352.826 22.3089 351.414 22.6517C351.507 23.2206 352.076 23.6728 352.03 24.2441C350.823 23.7433 349.545 23.4272 348.202 23.2692L348.134 23.471C349.842 25.4719 352.188 26.6584 354.581 27.361C358.022 28.156 361.05 26.5198 364.372 27.0887C372.53 30.8206 379.498 39.3567 382.528 47.4575C382.677 47.8465 382.82 48.2404 382.954 48.6416C385.493 56.0398 385.975 65.1326 383.431 72.8493C382.078 76.0585 380.589 79.0879 378.201 81.6966C377.298 82.8076 376.3 83.7972 375.215 84.6335C371.795 87.2933 367.58 88.4676 363.233 87.2763C362.961 87.0891 362.413 87.0429 362.505 86.5688C362.656 85.9342 362.797 85.2924 362.922 84.6335C363.64 80.9356 363.975 77.0456 363.781 73.1557C363.776 72.9903 363.771 72.8226 363.766 72.6573C363.525 67.0095 362.398 61.9331 360.322 57.0488C358.988 54.2455 357.407 51.1895 355.413 48.4471C353.033 45.177 350.081 42.352 346.289 40.9418C343.965 40.3267 341.095 40.21 339.343 42.1429C338.089 43.2394 337.568 44.7151 337.749 46.3343C335.789 47.5742 333.587 48.2428 331.189 48.4471C330.603 48.4981 330.002 48.7145 329.391 48.7072C328.812 48.7339 328.247 48.7096 327.692 48.6416C324.808 48.2866 321.89 46.7306 319.673 44.9558C319.626 43.7718 319.558 42.6583 319.512 41.4062C318.241 40.7473 317.188 39.4953 317.1 38.0146L317.212 37.9028C317.945 38.1289 318.577 38.4912 319.239 38.8777C318.942 37.1029 318.599 35.3524 317.716 33.8037C316.893 33.4609 316.073 33.1886 315.301 32.7778C314.413 32.1918 313.841 31.1172 313.71 30.1423C314.506 30.9154 315.893 30.6431 316.509 31.46C315.435 28.297 315.418 24.6793 313.661 21.7886C312.773 19.6515 310.448 18.6718 308.854 17.1036C308.238 16.3499 307.99 15.3045 306.876 15.1878C305.963 14.9617 305.895 13.9406 305.737 13.2769C306.304 13.3449 306.781 13.7315 307.258 13.8214C305.939 10.3229 304.775 6.42807 301.202 4.19863L300.589 4.58763C299.199 4.79185 297.717 4.88424 296.33 4.93043C296.946 4.02115 298.036 3.63216 298.902 3.21885C297.9 2.47003 297.075 2.29012 295.821 2.08589C295.093 2.8104 293.777 3.17752 292.842 3.38174L292.725 3.28935C292.701 2.47003 292.516 1.47079 293.75 1.26414C292.565 0.695228 290.601 0.926195 289.393 1.26414C289.055 2.15154 288.077 2.94898 288.147 3.99927C287.444 4.72621 286.943 5.706 286.21 6.22871C286.188 4.47579 286.935 2.86146 287.254 1.38327C286.229 1.76983 285.188 2.31686 284.183 2.79338C282.569 1.85979 280.865 0.928627 279.135 0.221138C278.979 0.153064 278.633 0.0874206 278.702 0.3816C280.184 1.44891 279.609 3.45468 279.768 4.9742L278.833 4.2035C278.378 3.0438 277.064 2.20259 276.837 0.928627C275.287 1.22524 274.296 1.63368 272.86 2.24879L272.663 2.36305C273.732 2.36305 274.642 3.20183 275.165 4.0479C273.549 4.13542 272.113 3.50087 270.519 3.33798C270.361 3.18238 270.222 2.99517 269.972 3.01949C269.176 3.3161 268.489 3.88257 267.788 4.4296C266.216 5.97829 264.62 7.68502 263.87 9.73455C264.396 9.82207 265.055 9.80019 265.442 10.1187C264.578 10.6414 263.826 11.5312 262.984 12.0296C262.687 13.2136 262.733 14.5605 262.663 15.854C262.001 16.8581 261.115 17.7406 260.684 18.8614C259.27 23.4272 258.907 28.5061 259.112 33.6919C258.654 34.1271 258.06 34.4018 257.632 34.7422L257.678 39.381H257.79C257.995 38.4061 259.158 37.8615 259.864 37.2002H260.093C259.978 38.2456 259.842 39.2935 259.82 40.3632L258.501 41.4548C257.177 42.617 258.294 44.3674 258.182 45.8262C258.275 46.2079 258.338 46.7792 258.613 46.8716C258.774 46.3027 259.272 45.8943 259.594 45.391C260.161 45.2573 260.662 44.7978 261.185 44.7346C260.889 45.8724 260.506 46.9859 260.046 48.0775C259.827 48.2209 259.572 48.413 259.353 48.6464C259.119 48.8968 258.932 49.1764 258.883 49.4876C259.913 54.8777 261.524 60.2021 263.366 65.276C262.118 67.3936 261.407 69.8857 260.365 72.0713C260.214 72.3752 260.08 72.6889 259.956 73.0049C258.91 75.6501 258.591 78.6089 257.289 81.1496C256.761 80.7897 256.191 80.5101 255.605 80.2621C253.142 79.4428 250.294 79.9655 248.498 81.857C246.901 81.5604 245.261 81.8327 244.008 82.6764C243.109 83.3449 242.416 84.1594 242.017 85.1076C241.744 85.7689 241.62 86.4885 241.661 87.2738C240.639 87.9764 240.092 89.0656 239.751 90.1621C239.274 92.6177 240.138 95.1753 241.549 97.0668H355.08V97.062Z" fill="white"/>
<path fill-rule="evenodd" clip-rule="evenodd" d="M340.002 45.9022C339.978 46.493 339.547 47.1567 339.934 47.6551C340.482 47.04 341.394 47.0619 342.122 46.792C344.147 46.6097 346.084 47.2442 347.973 47.7037C347.498 46.95 347.177 46.1137 346.654 45.4281C345.602 45.1558 344.011 45.8827 343.831 44.3365C343.191 43.7894 342.185 44.1809 341.531 44.2198C340.891 44.6793 340.367 45.2433 340.002 45.9022Z" fill="white"/>
<path fill-rule="evenodd" clip-rule="evenodd" d="M270.39 26.2572C270.38 26.2475 270.366 26.2378 270.356 26.2354C270.356 26.2354 270.356 26.2475 270.361 26.2572H270.39Z" fill="white"/>
<path fill-rule="evenodd" clip-rule="evenodd" d="M278.67 46.4805L280.038 45.1627C280.155 45.1627 280.242 45.1871 280.311 45.2794L280.196 47.8031C280.856 48.4182 281.676 48.6224 282.54 48.6686C282.611 47.9854 283.134 47.5089 283.431 46.9157C283.681 46.4391 283.523 45.7317 284.022 45.3889L284.178 45.5493C284.341 46.2981 284.297 47.1418 284.684 47.8006C284.73 48.1629 284.796 48.62 284.84 48.9385C285.843 48.9871 286.75 48.7099 287.527 48.3477C287.481 47.4846 287.78 46.7771 287.911 45.9796C288.121 45.7049 287.661 45.2065 288.233 45.2308C288.552 45.9116 289.121 46.6166 289.44 47.3436C290.759 46.0015 291.307 44.251 291.625 42.4325C291.241 41.9049 290.647 41.9049 290.189 41.567C286.32 40.3149 281.35 40.062 277.614 41.9973C277.373 43.5484 277.692 45.2551 278.67 46.4805Z" fill="white"/>
<path fill-rule="evenodd" clip-rule="evenodd" d="M242.474 89.1777C242.336 90.9331 242.474 92.5766 242.584 94.3052C242.951 94.8741 243.613 95.5354 244.267 95.5816L244.387 94.4195C244.657 92.8003 243.793 91.0838 244.705 89.7199C245.343 89.9241 245.975 90.2426 246.528 90.5392C246.795 89.0367 246.413 87.2862 244.978 86.377L242.474 89.1777Z" fill="white"/>
<path fill-rule="evenodd" clip-rule="evenodd" d="M248.096 86.7251C247.208 89.3848 246.546 92.6719 247.622 95.4702C248.232 95.0642 248.872 94.6752 249.415 94.1063C249.305 91.9644 249.009 89.679 250.281 87.9042C251.396 88.247 252.152 89.3168 252.58 90.3646C253.335 89.4043 253.585 88.0866 253.288 86.8102C253.335 85.8134 252.191 86.0419 251.646 85.6286C251.831 84.7874 251.804 83.8125 252.695 83.3359L249.962 83.6082C249.259 84.605 248.485 85.5873 248.096 86.7251Z" fill="white"/>
<path fill-rule="evenodd" clip-rule="evenodd" d="M253.723 94.5802C253.84 94.7893 253.723 95.1491 253.952 95.1953C254.295 93.2868 255.843 92.0469 256.688 90.3644C257.094 89.7955 257.07 88.9981 257.732 88.5653C258.622 88.5653 259.26 89.2048 260.127 89.2728C260.399 89.477 259.985 89.657 259.966 89.8831C259.786 91.4342 259.192 92.7179 259.306 94.3079H259.462C260.669 93.0388 261.489 91.6579 262.378 90.2016L262.534 88.9081C262.738 87.3594 261.054 86.3602 259.961 85.7232L260.939 84.4711L259.574 83.9922C257.977 84.1526 256.542 84.8115 255.427 86.066C254.042 88.6115 253.816 91.4877 253.723 94.5802Z" fill="white"/>
<path fill-rule="evenodd" clip-rule="evenodd" d="M259.852 81.0771C260.375 81.2376 260.852 80.8048 261.373 81.0334C263.471 81.8041 265.659 82.6015 267.228 84.3544L269.098 89.1075L270.032 86.1754L269.416 84.5805C268.893 83.4427 267.457 83.5351 266.476 83.4889C266.07 83.0343 266.501 82.5091 266.639 82.0788C267.114 80.4644 265.133 80.552 264.337 79.898C264.386 78.9182 263.198 79.2586 262.536 79.1662L262.31 78.8939C262.176 78.6896 261.835 78.6896 261.65 78.8477C261.601 78.782 261.514 78.7358 261.563 78.6191L261.056 78.7358C260.353 79.3509 259.873 80.1459 259.852 81.0771Z" fill="white"/>
<path fill-rule="evenodd" clip-rule="evenodd" d="M261.171 75.8476C261.239 76.1418 261.422 76.4384 261.648 76.6183C262.675 76.346 263.651 75.6434 264.836 76.0713C266.365 77.4133 267.956 78.8234 269.806 79.5552L270.463 79.4385C270.875 79.5796 271.327 79.599 271.602 80.0536C271.855 80.6687 271.22 81.0334 271.011 81.5318C272.038 82.2831 271.627 83.6276 272.267 84.5344L273.907 82.3512C273.523 81.3933 273.929 79.757 272.425 79.6671C271.926 79.4142 271.583 78.9134 271.605 78.3445C270.629 77.4571 269.422 77.073 268.438 76.1637C267.642 75.5243 267.165 74.5445 266.138 74.3184C265.435 73.9342 264.663 73.7276 263.843 73.5477C262.31 73.3216 262.176 75.1377 261.171 75.8476Z" fill="white"/>
<path fill-rule="evenodd" clip-rule="evenodd" d="M263.356 71.3644L263.631 71.7972C264.768 71.7267 265.798 71.2282 266.915 71.2501C267.664 71.7072 268.645 71.6853 269.417 72.0695C270.032 72.9107 270.694 73.8661 271.6 74.4375C273.45 74.7073 274.472 76.6888 275.109 78.1427V77.4376C275.382 76.4627 275.085 75.3224 274.72 74.4375C274.265 73.9804 273.605 73.6814 273.128 73.2729C273.036 72.9787 273.104 72.8402 273.196 72.5679C272.488 71.8166 271.442 71.4057 270.578 70.8174C269.37 69.0645 267.046 69.5434 265.201 69.0645L263.356 71.3644Z" fill="white"/>
<path fill-rule="evenodd" clip-rule="evenodd" d="M263.32 54.6717C263.522 55.3792 263.77 56.2666 263.904 57.0154C264.541 55.6053 265.799 54.9732 266.914 53.811C266.274 53.3758 265.48 53.1716 264.775 53.0355V52.9941C264.274 53.4925 263.5 53.9934 263.32 54.6717Z" fill="white"/>
<path fill-rule="evenodd" clip-rule="evenodd" d="M267.458 62.157L268.482 61.1116C269.509 60.0661 270.351 58.8578 270.509 57.5158C269.781 57.083 268.825 57.3772 268.119 57.6276C267.864 59.1107 267.482 60.567 267.458 62.157Z" fill="white"/>
<path fill-rule="evenodd" clip-rule="evenodd" d="M268.207 65.3665C269.781 65.4589 271.304 65.7725 272.582 64.8924L273.854 60.7933C273.448 60.769 273.034 60.5891 272.65 60.7252C271.81 62.5924 270.119 64.4329 268.207 65.3665Z" fill="white"/>
<path fill-rule="evenodd" clip-rule="evenodd" d="M268.669 50.8491C269.694 52.354 271.402 54.0364 273.156 54.5105C272.951 52.602 271.314 51.2794 270.47 49.6432L270.421 49.0961C269.762 48.4567 268.964 48.0288 268.28 47.6836C268.17 48.7801 268.467 49.8279 268.669 50.8491Z" fill="white"/>
<path fill-rule="evenodd" clip-rule="evenodd" d="M274.224 65.5491C275.43 65.7582 276.727 65.5491 277.842 65.2039C279.462 64.8222 280.35 63.045 280.895 61.6592H278.868L276.681 63.7962C275.82 64.2533 274.995 64.9389 274.224 65.5491Z" fill="white"/>
<path fill-rule="evenodd" clip-rule="evenodd" d="M273.978 48.7803C274.321 50.5551 275.068 52.1694 276.097 53.6962L276.369 50.3047L273.978 48.7803Z" fill="white"/>
<path fill-rule="evenodd" clip-rule="evenodd" d="M281.444 57.6297C281.58 56.4919 281.105 55.1742 280.974 54.0145C280.288 53.5574 279.329 53.6036 278.626 53.1514C278.67 54.948 280.079 56.47 281.444 57.6297Z" fill="white"/>
<path fill-rule="evenodd" clip-rule="evenodd" d="M279.371 69.1928C280.807 68.7357 282.194 68.2348 283.512 67.5055C284.354 66.3045 285.632 65.2055 285.812 63.7979C284.765 64.092 283.853 63.7541 282.877 64.233C282.286 65.3004 281.919 66.5087 280.782 67.2794C280.602 68.0501 279.758 68.5777 279.371 69.1928Z" fill="white"/>
<path fill-rule="evenodd" clip-rule="evenodd" d="M281.6 71.9917L283.308 74.2187C284.221 74.5153 285.359 74.4229 286.155 73.9002L285.539 71.875C284.335 72.3345 282.902 72.1935 281.6 71.9917Z" fill="white"/>
<path fill-rule="evenodd" clip-rule="evenodd" d="M284.45 55.8776L285.11 58.8826C286.701 57.5843 287.024 55.6952 286.986 53.6943C286.073 54.7398 285.54 55.3792 284.45 55.8776Z" fill="white"/>
<path fill-rule="evenodd" clip-rule="evenodd" d="M288.936 61.1826C288.96 61.6129 289.075 62.0238 289.325 62.3666C291.099 63.0012 291.282 65.1625 292.924 65.9819C293.992 66.4584 295.218 65.8652 296.155 65.4348C295.449 64.6398 294.649 64.0879 293.97 63.2492C293.491 63.0449 293.012 62.7483 293.036 62.1575L288.936 61.1826Z" fill="white"/>
<path fill-rule="evenodd" clip-rule="evenodd" d="M290.348 71.9212C291.124 72.8086 292.17 73.2632 293.262 73.5112C293.082 73.2608 293.379 73.5112 293.423 73.3532L292.053 70.3555C291.372 70.3725 290.666 70.5111 290.029 70.4673C290.073 70.9633 290.189 71.4617 290.348 71.9212Z" fill="white"/>
<path fill-rule="evenodd" clip-rule="evenodd" d="M292.763 57.9023C292.123 56.4241 291.856 54.6274 291.676 52.9912C290.992 53.8081 290.286 54.3332 289.649 55.172C289.352 56.8569 291.758 57.2702 292.763 57.9023Z" fill="white"/>
<path fill-rule="evenodd" clip-rule="evenodd" d="M295.541 56.3583C296.361 57.4256 298.159 57.0609 299.166 56.7424C298.684 55.9231 297.142 55.4466 296.869 54.5592C296.709 52.991 296.395 51.4667 295.889 50.0322C295.091 51.9651 294.13 54.265 295.541 56.3583Z" fill="white"/>
<path fill-rule="evenodd" clip-rule="evenodd" d="M296.975 61.1825C299.255 62.8455 301.485 64.7759 304.673 64.0708C304.902 63.9103 305.289 63.9322 305.335 63.638C304.398 63.0448 303.4 62.5902 302.441 62.048L301.351 60.4531H300.849C299.618 60.864 298.294 61.0196 296.975 61.1825Z" fill="white"/>
<path fill-rule="evenodd" clip-rule="evenodd" d="M297.023 79.6357H297.179C298.549 78.5441 300.166 78.1794 301.782 77.7223C302.217 77.8803 301.942 78.3593 302.329 78.5441C303.31 78.1332 304.495 78.2256 305.496 77.8828C306.705 77.9314 307.686 77.9533 308.662 78.476C309.433 79.4971 310.894 79.3877 311.899 80.066L311.738 78.476C309.621 75.9937 306.316 75.8114 303.269 75.86L303.198 75.5391C302.47 75.5391 301.653 75.6995 300.969 76.0205C299.99 76.0618 299.056 76.5432 298.119 76.8373C297.683 77.7029 297.342 78.7459 297.023 79.6357Z" fill="white"/>
<path fill-rule="evenodd" clip-rule="evenodd" d="M298.851 51.6713C299.739 52.8334 301.058 53.7184 302.561 53.4242C301.79 52.673 300.899 51.8731 300.853 50.8058C301.082 48.7806 298.851 48.6226 297.758 47.5723C298.118 48.941 298.077 50.463 298.851 51.6713Z" fill="white"/>
<path fill-rule="evenodd" clip-rule="evenodd" d="M298.62 83.6636H298.885C300.095 82.9075 301.85 83.4789 303.035 82.6814C303.695 82.3386 303.738 83.2503 304.198 83.5008C305.313 84.1839 305.449 86.2286 307.022 85.7545C308.91 86.7319 308.433 89.0342 308.501 90.7166L310.256 89.625C310.096 88.7376 310.595 87.663 310.025 86.8923C309.594 85.9174 308.411 85.825 307.842 85.0276C308.526 83.8654 306.978 83.3233 306.657 82.4796L306.749 82.3629L309.159 82.6814C309.984 83.1823 310.276 84.094 310.529 84.9352C312.42 85.2537 312.875 87.3907 313.537 88.7571C313.924 87.8235 314.082 86.8218 314.472 85.915C314.493 85.1613 313.491 85.1613 312.992 84.8233C312.851 83.6636 312.33 82.5672 311.308 81.8645C309.21 81.3418 307.367 80.1797 305.067 80.1797L303.152 80.7729C302.103 81.0233 300.988 80.7048 300.192 81.4293C299.002 81.5193 298.912 82.82 298.62 83.6636Z" fill="white"/>
<path fill-rule="evenodd" clip-rule="evenodd" d="M299.822 74.2864L300.258 74.4906C301.188 74.0554 302.125 73.557 303.105 73.1923C304.629 72.7596 305.814 74.4906 307.092 73.399C307.569 73.0562 307.976 73.557 308.343 73.8318C308.891 74.8334 310.166 74.7654 311.122 75.0377C310.645 73.7418 310.054 71.9646 308.389 71.7555C307.73 71.4613 306.953 71.4905 306.316 71.0991C304.563 69.1662 303.424 72.6891 301.509 71.826C300.827 72.5821 299.985 73.2847 299.822 74.2864Z" fill="white"/>
<path fill-rule="evenodd" clip-rule="evenodd" d="M300.258 85.3676C300.985 85.9778 301.735 87.0281 302.871 86.8896C304.289 87.5509 303.696 89.4132 304.47 90.393L305.287 89.6636L305.219 89.6198L305.336 89.5056L305.384 89.5736C305.611 88.888 305.29 87.6821 304.903 86.8871C304.38 86.5273 303.764 86.9114 303.265 86.5686C303.195 85.8417 302.74 85.477 302.216 85.0224C301.851 84.7501 301.372 85.1148 300.963 85.0904L300.258 85.3676Z" fill="white"/>
<path fill-rule="evenodd" clip-rule="evenodd" d="M303.105 57.6306C303.857 58.8851 305.312 59.6582 306.475 60.5213C307.429 60.9565 308.682 61.0659 309.709 60.8398C308.731 60.0448 307.84 59.1355 307.023 58.1752C306.704 57.7205 306.633 57.154 306.203 56.7432C305.127 56.9498 303.925 56.9279 303.105 57.6306Z" fill="white"/>
<path fill-rule="evenodd" clip-rule="evenodd" d="M304.361 49.4879C305.412 50.7813 307.028 50.261 308.507 50.3048V50.1492L306.23 48.2334C305.59 48.4401 304.911 49.0065 304.361 49.4879Z" fill="white"/>
<path fill-rule="evenodd" clip-rule="evenodd" d="M262.432 28.0302L263.75 32.1268C263.726 29.805 264.797 27.8722 264.57 25.5066L265.551 24.0479L263.475 24.6848C262.93 25.7303 262.478 26.7806 262.432 28.0302Z" fill="white"/>
<path fill-rule="evenodd" clip-rule="evenodd" d="M263.32 20.9308L265.115 19.8829V17.2207C264.364 17.6778 263.95 18.4509 263.364 19.066L263.32 20.9308Z" fill="white"/>
<path fill-rule="evenodd" clip-rule="evenodd" d="M300.263 25.0737C299.827 25.6426 299.17 25.7788 298.625 25.8931C299.579 24.1401 300.037 21.7016 299.282 19.7226C299.786 19.5427 300.334 19.4552 300.811 19.178L300.762 19.1342L302.018 18.0378C303.68 16.8999 303.042 14.741 303.658 13.1267C302.838 11.8503 302.59 10.304 301.402 9.23183L301.473 9.1905C300.536 8.00649 298.851 8.1402 297.571 7.54941C295.887 6.98051 294.59 8.1402 293.383 8.9182C292.859 9.00572 293.178 9.6889 292.609 9.66702C292.29 10.5107 291.9 11.4199 291.674 12.3511C289.418 12.0302 286.984 12.2855 285.183 13.557C284.224 12.8544 283.063 12.7158 281.946 12.3973C281.128 12.2393 280.194 12.5359 279.605 12.0764C278.741 11.1014 278.553 9.32421 277.071 9.07623C276.55 8.89389 276.438 8.32741 276.438 7.82414C275.457 7.66611 274.589 7.2139 273.632 7.00482C272.179 6.34352 271.018 7.39382 269.923 8.09644C269.446 8.3031 268.898 8.36874 268.446 8.6459C267.625 9.91743 266.849 11.2157 266.326 12.6234C266.486 13.7831 266.985 14.8091 267.582 15.7864C268.105 17.267 269.743 18.4267 271.133 19.02C270.473 21.2713 270.473 23.9578 271.133 26.2334C271.133 26.2334 271.094 26.2602 271.094 26.2553C271.094 26.2602 271.021 26.3185 271.021 26.3185C270.802 26.3185 270.57 26.3623 270.39 26.2553H270.361C270.68 28.4288 271.705 30.3301 273.359 31.9614C273.953 32.1705 273.817 32.8731 274.07 33.3302C274.226 33.532 274.248 33.9648 274.18 34.1471C270.631 34.0328 267.462 34.9202 264.615 36.5346C263.887 36.8992 264.208 37.9033 264.14 38.606C266.143 37.2882 268.307 36.3085 270.697 35.8781C271.722 35.8101 272.882 35.5596 273.863 35.8319L273.978 37.7891C271.269 39.1992 268.307 40.0185 265.983 42.3403C266.029 43.043 265.895 43.8647 266.099 44.4579L268.173 42.7707C270.174 41.2512 272.269 39.9504 274.572 39.1092C275.187 39.8386 275.827 40.6117 276.648 41.0639C278.035 40.1765 279.539 39.5201 281.133 39.1092C281.978 38.6084 283.316 39.063 283.864 38.0638L284.253 35.9924C284.183 35.9462 284.141 35.8587 284.025 35.883C282.956 35.2679 282.25 34.2006 282.34 32.9461C281.978 33.126 281.569 33.2427 281.133 33.2646C280.768 33.1722 280.43 33.0846 280.269 32.7175C280.245 32.2605 280.016 31.5797 280.471 31.2393C281.951 30.3276 283.866 30.2814 285.735 30.4224C287.123 30.6024 289.131 30.5318 289.605 32.1754C289.542 32.6519 289.583 33.1746 289.106 33.4931C288.605 33.7654 288.038 33.4688 287.578 33.267C287.218 34.3805 286.602 35.635 285.346 35.9948L285.509 37.3174C285.665 37.9106 285.711 38.8856 286.648 38.6813C288.812 39.2041 290.722 40.32 292.613 41.5259C293.251 40.8865 293.753 40.1571 294.205 39.5007C297.576 40.6361 300.494 43.1621 303.271 45.5058L303.388 43.5949C300.745 41.2512 297.805 39.5906 294.753 38.2923C294.87 37.6772 295.006 37.084 295.025 36.4276C298.649 36.6294 302.083 37.7453 305.072 39.5007L305.024 37.862C301.881 36.1796 298.442 35.0637 294.682 35.0175C294.546 34.8084 294.502 34.5166 294.526 34.31C296.349 34.0134 297.644 32.1267 298.082 30.4857C299.012 29.4183 300.36 28.2562 300.041 26.6662C300.083 26.5373 300.129 26.3963 300.175 26.2602C300.297 25.859 300.399 25.4433 300.263 25.0737Z" fill="white"/>
<path fill-rule="evenodd" clip-rule="evenodd" d="M303.432 30.9203L305.298 30.3271L305.5 29.2817C306.028 27.7573 304.913 26.6195 304.361 25.4111L303.432 30.9203Z" fill="white"/>
<path fill-rule="evenodd" clip-rule="evenodd" d="M308.141 38.1341C309.029 39.109 309.895 40.682 311.47 40.2006C311.353 39.5442 310.988 38.9996 310.762 38.4064C310.348 37.925 310.214 36.5611 309.394 37.0425C308.779 36.6316 308.623 35.946 308.231 35.4014C308.054 36.2426 308.166 37.2904 308.141 38.1341Z" fill="white"/>
<path fill-rule="evenodd" clip-rule="evenodd" d="M308.462 44.7958C308.805 45.2772 308.898 45.8923 309.234 46.3227C309.849 46.7287 310.762 46.6655 311.511 46.595C312.195 46.4369 312.628 47.1858 313.265 46.7506C312.472 46.2522 311.995 45.3404 311.239 44.684C310.348 43.979 309.397 44.5941 308.462 44.7958Z" fill="white"/>
<path fill-rule="evenodd" clip-rule="evenodd" d="M309.67 55.3785C311.239 56.3121 313.239 57.2238 315.334 56.9054C315.56 56.7887 315.949 56.813 315.993 56.5382C314.696 56.0812 313.334 54.7853 311.971 54.513C311.217 53.3533 310.239 54.8096 309.283 54.7172C309.305 54.992 309.577 55.1986 309.67 55.3785Z" fill="white"/>
<path fill-rule="evenodd" clip-rule="evenodd" d="M314.403 75.4678L314.746 76.1996C315.089 78.5676 316.588 80.7484 315.768 83.3425C316.452 83.8191 316.659 84.6141 317.09 85.2511H317.204C317.727 83.2745 317.364 81.2249 317.09 79.2435C317.294 77.4468 315.471 76.3989 314.403 75.4678Z" fill="white"/>
<path fill-rule="evenodd" clip-rule="evenodd" d="M314.795 52.1698C315.98 53.0815 317.87 53.1714 319.233 52.7168C318.369 52.2403 317.415 51.7175 316.705 51.0781L314.795 52.1698Z" fill="white"/>
<path fill-rule="evenodd" clip-rule="evenodd" d="M320.415 59.1573C320.298 60.1152 320.938 60.9102 321.622 61.3867C321.872 60.8178 322.281 60.3413 322.325 59.7043C322.123 58.7245 321.575 57.8395 320.687 57.1807C320.527 57.8152 320.347 58.4255 320.415 59.1573Z" fill="white"/>
<path fill-rule="evenodd" clip-rule="evenodd" d="M320.486 69.5285C320.325 70.5958 321.507 70.7368 322.009 71.3276C322.42 71.826 321.736 72.1688 321.736 72.6454C322.6 73.7589 323.101 75.0353 323.101 76.5159C323.444 75.1301 323.967 73.8051 324.155 72.3731C324.062 71.3738 322.471 71.578 322.719 70.4645C323.172 69.3267 322.627 68.2108 322.33 67.1897C322.237 67.0268 322.033 66.7083 321.855 66.8007C321.437 67.7343 320.415 68.3907 320.486 69.5285Z" fill="white"/>
<path fill-rule="evenodd" clip-rule="evenodd" d="M323.605 64.1146L324.788 66.4121C325.314 66.3489 325.649 65.8432 326.06 65.4833C326.382 64.5254 325.537 63.9103 325.289 63.1372C325.08 62.5902 325.289 61.8632 324.9 61.3843C324.606 61.2044 324.26 60.9078 323.919 60.9953L323.605 64.1146Z" fill="white"/>
<path fill-rule="evenodd" clip-rule="evenodd" d="M325.129 58.0654C326.064 58.6319 327.132 59.4512 327.631 60.4505C328.432 62.7723 329.707 64.8656 330.64 67.1169C330.983 68.6875 331.255 70.0879 331.689 71.6366C331.849 72.0402 331.757 72.8376 332.397 72.772C332.577 71.0433 332.92 69.3828 332.942 67.5837C332.375 66.8349 331.618 66.5164 330.915 66.0569V65.9013C331.007 65.5123 331.326 65.0577 331.805 65.1306C332.007 64.8972 332.623 64.6735 332.353 64.2651C331.168 63.0835 331.236 61.0437 329.342 60.6766C328.685 60.4043 328.522 59.7235 328.459 59.0865C327.568 58.3402 326.244 58.0824 325.129 58.0654Z" fill="white"/>
<path fill-rule="evenodd" clip-rule="evenodd" d="M326.219 70.3969C327.382 71.4618 326.976 73.0105 326.881 74.4449C326.701 75.3104 327.794 74.8096 328.137 75.2642C328.84 76.3121 328.431 77.8365 328.178 78.9743C328.796 78.0383 329.502 77.2189 329.978 76.1978C329.954 75.8088 330.453 75.6289 330.436 75.1524C330.638 74.4911 329.867 74.7877 329.548 74.7148C329.275 74.6467 328.978 74.4643 329.066 74.1021C329.66 72.9618 329.115 71.5979 328.886 70.4625C328.614 69.5265 329.003 68.2793 328.567 67.46C327.84 68.4616 325.674 68.6902 326.219 70.3969Z" fill="white"/>
<path fill-rule="evenodd" clip-rule="evenodd" d="M328.339 54.2383C330.369 56.2878 331.848 58.3446 334.033 60.3261C334.082 59.4435 333.965 58.6193 333.919 57.7538C333.597 57.1436 333.006 56.6865 332.505 56.2319C330.892 56.0714 330.047 53.8979 328.339 54.2383Z" fill="white"/>
<path fill-rule="evenodd" clip-rule="evenodd" d="M333.647 65.0842C333.694 65.2884 333.786 65.4683 333.874 65.675C334.762 67.1337 335.604 68.6313 336.222 70.2019C336.039 68.5219 337.18 66.4238 335.674 65.1304C335.47 64.5833 334.786 64.7657 334.353 64.8095L333.647 65.0842Z" fill="white"/>
<path fill-rule="evenodd" clip-rule="evenodd" d="M339.114 81.7068C339.754 81.9962 340.572 81.4734 341.187 81.1136C341.757 80.975 342.236 81.2935 342.67 81.5901C342.85 81.9524 342.67 82.2928 342.733 82.6356C344.103 83.0221 345.444 83.523 346.654 84.318L347.036 83.9339C347.128 82.9541 346.357 82.2539 345.627 81.7068C345.15 81.4273 344.439 81.5901 344.103 81.155C344.329 80.7951 344.329 80.2481 344.305 79.8372C343.551 79.8372 343.074 79.6087 342.458 79.244C342.076 79.1322 341.73 78.8137 341.411 79.244C340.275 80.0196 340.207 81.155 339.114 81.7068Z" fill="white"/>
<path fill-rule="evenodd" clip-rule="evenodd" d="M340.71 53.0719C341.277 52.9163 341.873 52.751 342.35 52.345C343.871 50.9568 346.083 51.8879 347.857 51.8661C347.518 51.251 347.037 50.6407 346.606 50.1131C345.968 49.8627 345.375 49.5661 344.647 49.5661C343.097 48.6593 342.054 50.1812 340.866 50.93C340.55 51.55 340.392 52.4568 340.71 53.0719Z" fill="white"/>
<path fill-rule="evenodd" clip-rule="evenodd" d="M340.754 57.7544C340.754 57.6911 340.754 57.6182 340.822 57.5988C341.027 57.7811 340.798 58.2114 341.141 58.3014C341.733 58.0096 342.28 57.5988 342.826 57.2146C344.354 57.2146 345.264 55.7364 346.763 55.7364C349.268 56.1886 351.755 56.6895 353.938 57.9172C353.783 56.4391 352.505 55.097 351.21 54.4333C350.477 54.1829 349.908 54.5743 349.385 54.9803C347.856 55.9407 348.657 53.5945 347.586 53.5459C346.196 53.9835 344.76 54.4576 343.215 54.3239C342.302 54.6618 341.662 55.5006 340.64 55.4131C340.594 56.1643 340.479 57.076 340.754 57.7544Z" fill="white"/>
<path fill-rule="evenodd" clip-rule="evenodd" d="M341.803 62.8327C342.278 63.3311 343.074 63.2387 343.762 63.3311L345.741 62.5604C345.765 62.1957 345.15 62.1009 345.284 61.6973C345.831 61.0822 346.586 61.5126 347.265 61.2597C348.226 61.126 349.204 60.1705 350.156 60.8756C350.134 60.9874 350.205 61.1503 350.115 61.2597C349.813 61.9672 350.319 62.3975 350.864 62.6698C351.981 62.8789 353.028 63.9025 354.145 63.443C354.033 62.5118 353.782 61.6487 353.551 60.7589C352.619 60.5984 351.959 59.8253 351.093 59.5044C350.704 59.869 350.205 60.1438 349.725 60.0976C347.97 59.6891 345.875 58.5975 344.101 59.7134C343.461 60.4841 342.322 60.258 341.458 60.596C341.506 61.3764 341.594 62.1252 341.803 62.8327Z" fill="white"/>
<path fill-rule="evenodd" clip-rule="evenodd" d="M342.553 76.3558C342.414 76.7423 342.03 77.3817 342.733 77.5616C344.193 77.6103 346.059 76.859 347.2 77.9944C347.585 78.2934 347.402 78.9037 347.38 79.2927L349.29 80.8876C349.475 79.9297 349.813 79.0641 349.838 78.0382C349.682 77.3112 349.314 76.6037 348.679 76.1272C347.424 76.1272 346.694 74.6612 345.351 74.8484C344.648 74.6855 344.035 75.3103 343.324 75.3103C343.005 75.6288 342.825 76.0178 342.553 76.3558Z" fill="white"/>
<path fill-rule="evenodd" clip-rule="evenodd" d="M343.101 65.6312C343.395 66.2415 343.741 67.2455 344.308 67.3136C345.651 66.7228 347.608 66.3557 349.115 66.9951C349.616 67.0851 349.616 67.654 349.504 68.0211C350.276 68.4758 351.213 68.8356 352.03 69.3388L351.804 67.9749C351.755 66.4943 349.889 66.3557 349.774 64.897C348.248 64.3986 346.54 64.2405 344.924 64.6271C344.396 65.1061 343.648 65.038 343.008 65.1766C342.967 65.3565 343.076 65.4683 343.101 65.6312Z" fill="white"/>
<path fill-rule="evenodd" clip-rule="evenodd" d="M343.49 73.0027C344.378 72.7523 344.942 71.7725 345.901 71.685C347.358 71.7093 348.658 72.2953 349.565 73.5498C350.118 73.912 350.001 74.848 350.704 74.848C350.5 73.7297 350.865 72.7061 350.821 71.5683C349.86 69.9783 347.5 71.2036 346.609 69.3389L344.925 69.4507C343.719 69.7473 344.04 71.1599 343.874 72.1153C343.738 72.4119 343.465 72.638 343.49 73.0027Z" fill="white"/>
<path fill-rule="evenodd" clip-rule="evenodd" d="M351.843 82.9534C352.551 84.3636 354.103 85.4357 354.259 87.0525C354.624 86.6173 354.874 86.1189 355.125 85.6424C355.101 85.1853 354.575 85.1853 354.368 84.823C354.164 84.2323 354.485 83.7095 354.575 83.182C354.281 82.3383 353.573 81.5433 352.777 81.0449L351.843 82.9534Z" fill="white"/>
<path fill-rule="evenodd" clip-rule="evenodd" d="M354.651 79.3604L356.289 81.5898C356.992 80.4739 356.992 78.8376 356.72 77.4907C356.564 77.2403 356.265 76.8319 355.856 77.0142C355.238 77.6536 355.15 78.6286 354.651 79.3604Z" fill="white"/>
<path fill-rule="evenodd" clip-rule="evenodd" d="M347.973 17.0796C348.567 17.3762 349.136 17.6485 349.839 17.6922C350.321 17.4443 350.937 17.2619 351.528 17.4199C352.37 17.967 353.394 17.3057 354.37 17.3519C353.508 16.535 352.526 16.0341 351.528 15.5576C350.251 15.8275 349.229 16.7343 347.973 17.0796Z" fill="white"/>
<path fill-rule="evenodd" clip-rule="evenodd" d="M356.883 19.2187C358.085 19.3306 358.951 20.3979 359.771 21.2926C360.798 21.4482 361.572 22.1751 362.185 22.9288L361.798 21.7205C361.526 20.5121 360.774 19.5785 360.003 18.6279C358.91 18.696 357.835 18.786 356.883 19.2187Z" fill="white"/>
<path fill-rule="evenodd" clip-rule="evenodd" d="M271.88 9.23438L272.539 9.30245C274.318 10.1898 277.188 10.6445 277.346 13.2143C275.552 13.9218 273.82 14.8797 272.386 16.3311C271.293 15.2152 269.081 15.8303 268.718 13.8756C269.061 12.0327 269.719 9.71576 271.88 9.23438Z" fill="#FF6600"/>
<path fill-rule="evenodd" clip-rule="evenodd" d="M273.593 20.7732C275.662 20.5932 277.667 20.8826 279.812 20.7051C280.335 20.9312 280.88 21.3883 281.131 21.911C281.063 24.3665 280.311 26.7127 280.196 29.2363C279.264 29.6277 278.351 30.3984 278.125 31.4219C277.28 31.6699 276.528 32.1756 275.708 32.5573C275.343 31.7866 275.411 30.6245 276.054 29.99C276.94 28.7354 279.242 29.032 279.055 27.053C279.649 26.0951 279.079 24.8673 279.103 23.8657C278.875 23.1169 278.648 24.1161 278.283 24.0918C277.555 24.2474 276.803 24.296 276.168 23.9362C275.686 23.4305 275.095 23.0245 274.959 22.3413C274.321 22.0228 273.571 21.522 273.252 20.8607L273.593 20.7732Z" fill="#FF6600"/>
<path fill-rule="evenodd" clip-rule="evenodd" d="M276.097 35.6078C277.07 35.7415 278.1 35.3112 278.942 35.7877C278.759 36.1062 278.282 36.2424 277.895 36.3348L276.37 37.0423C275.8 36.9012 276.119 35.992 276.097 35.6078Z" fill="#FF6600"/>
<path fill-rule="evenodd" clip-rule="evenodd" d="M280.084 16.6057C281.059 16.2872 282.11 15.6307 283.157 15.9492C282.405 16.7005 281.814 17.6778 281.247 18.5847L278.127 18.5191C278.463 17.7022 279.327 17.019 280.084 16.6057Z" fill="#FF6600"/>
<path fill-rule="evenodd" clip-rule="evenodd" d="M289.218 15.8565C290.512 15.6304 290.444 17.3128 291.629 17.3833C291.836 17.6556 292.132 17.9036 292.016 18.3121C291.332 18.5844 290.332 18.4506 289.553 18.6306C288.529 18.0616 289.193 16.2868 287.573 16.4011C287.485 16.2674 287.3 15.9927 287.529 15.9003C288.033 15.7228 288.687 15.7884 289.218 15.8565Z" fill="#FF6600"/>
<path fill-rule="evenodd" clip-rule="evenodd" d="M288.398 21.9566C288.965 21.1568 289.834 21.0936 290.652 20.9307L296.551 21.0449C296.802 21.271 296.325 21.4753 296.325 21.75C295.96 22.0904 295.434 22.1827 295.115 22.5037C294.344 22.528 294.407 23.4324 293.862 23.8214C293.017 24.6626 291.791 24.2785 290.81 24.1399C290.467 23.8895 290.082 23.5467 289.922 23.1601L289.649 23.4324C289.992 24.7088 289.9 26.1213 290.148 27.4148L291.56 28.3508C291.584 30.4441 294.045 29.8752 295.115 31.0373C294.865 31.7861 294.363 32.4231 293.821 33.0625C292.954 32.2189 291.973 31.6694 290.927 31.3096C290.837 30.0794 289.493 29.3549 288.739 28.7374C288.534 26.5079 288.488 24.2323 288.128 22.0709L288.398 21.9566Z" fill="#FF6600"/>
<path fill-rule="evenodd" clip-rule="evenodd" d="M290.537 35.9922H293.272L292.929 37.4266L290.194 36.2645C290.131 36.0384 290.377 35.9703 290.537 35.9922Z" fill="#FF6600"/>
<path fill-rule="evenodd" clip-rule="evenodd" d="M295.456 10.2166L297.483 9.57715C298.647 10.1217 299.739 10.8074 300.808 11.5781C301.652 13.1292 301.511 15.2176 301.127 16.9462C300.511 17.6318 299.168 16.9462 298.669 18.0378H298.576C297.822 15.9008 295.685 13.9923 293.701 13.01C294.02 11.9209 294.363 10.8535 295.456 10.2166Z" fill="#FF6600"/>
<path fill-rule="evenodd" clip-rule="evenodd" d="M342.962 96.9018H355.114C356.912 96.6295 358.825 96.6733 360.259 95.3507C366.343 96.2867 372.513 94.7842 377.295 91.4413C379.819 89.4039 382.088 87.0505 383.92 84.4807C385.536 82.2148 386.814 80.0972 387.639 77.5614C388.253 75.9932 388.739 74.3667 389.107 72.6916C390.842 64.8071 389.932 55.9891 387.367 48.4814C386.89 47.0883 386.357 45.7463 385.77 44.4577C382.562 37.8351 378.201 30.6921 371.474 26.5007C367.684 24.1399 364.202 20.4882 362.062 16.7149C360.899 15.6647 359.782 14.2789 358.28 14.0284C358.691 14.7116 359.144 15.3705 359.261 16.1655L359.168 16.2798C357.577 16.326 356.321 15.4847 355.228 14.4563L356.438 13.3671C355.98 13.141 355.457 13.0462 354.955 12.9368C350.353 12.4141 346.573 14.5268 342.499 15.5528L342.431 15.7789C344.933 16.8924 345.456 19.6446 346.917 21.5142C347.282 21.079 347.897 21.3975 348.396 21.3513C349.124 21.3975 349.808 21.9202 350.511 21.7379C350.536 21.1252 350.197 20.6487 350.08 20.1041C350.511 19.895 351.039 20.0798 351.516 20.1041C352.836 20.8748 354.955 19.9631 355.776 21.7379C354.272 21.8327 352.86 22.1463 351.448 22.4891C351.538 23.058 352.108 23.5151 352.064 24.084C350.854 23.5783 349.582 23.2671 348.236 23.1042L348.172 23.306C349.881 25.3094 352.222 26.4934 354.615 27.2009C358.054 27.9959 361.081 26.3596 364.404 26.9286C372.564 30.6605 379.53 39.1965 382.562 47.2974C382.711 47.6864 382.852 48.0803 382.988 48.4766C385.527 55.8748 386.006 64.9749 383.465 72.6868C382.112 75.9009 380.622 78.9253 378.235 81.5389C377.332 82.6451 376.332 83.6346 375.246 84.4758C371.827 87.1356 367.611 88.305 363.269 87.1113C362.999 86.9338 362.447 86.8852 362.537 86.4086C362.69 85.7765 362.831 85.1298 362.955 84.4758C363.678 80.773 364.007 76.8831 363.817 72.998C363.807 72.8302 363.805 72.6625 363.797 72.4971C363.559 66.8518 362.432 61.773 360.354 56.8911C359.025 54.0878 357.44 51.0318 355.447 48.2869C353.069 45.0145 350.115 42.187 346.323 40.7768C343.998 40.1617 341.126 40.0499 339.377 41.9852C338.121 43.0768 337.6 44.555 337.78 46.1693C335.821 47.4141 333.618 48.0851 331.221 48.2869C330.634 48.338 330.031 48.5495 329.425 48.5471C328.843 48.5738 328.276 48.5471 327.728 48.4766C324.837 48.1216 321.921 46.5729 319.704 44.7908C319.658 43.6141 319.587 42.4933 319.543 41.2461C318.27 40.5848 317.224 39.3303 317.131 37.8545L317.248 37.7402C317.976 37.9663 318.614 38.331 319.271 38.72C318.974 36.9452 318.636 35.1923 317.747 33.646C316.927 33.3032 316.102 33.0334 315.33 32.6201C314.442 32.0293 313.873 30.9595 313.741 29.9798C314.535 30.7577 315.924 30.483 316.54 31.3023C315.472 28.1393 315.447 24.5216 313.692 21.6309C312.804 19.4914 310.48 18.5141 308.886 16.9411C308.27 16.1922 308.022 15.1468 306.904 15.0301C305.994 14.804 305.924 13.778 305.766 13.1216C306.335 13.1872 306.812 13.5762 307.294 13.6662C305.97 10.1603 304.809 6.27281 301.234 4.04337L300.618 4.4275C299.231 4.63659 297.748 4.72411 296.359 4.77031C296.975 3.8586 298.067 3.47446 298.934 3.06115C297.929 2.31233 297.106 2.12999 295.85 1.92334C295.122 2.65514 293.808 3.01496 292.874 3.21918L292.762 3.13166C292.737 2.31476 292.547 1.30823 293.779 1.10644C292.596 0.537534 290.637 0.763638 289.427 1.10644C289.084 1.99384 288.113 2.78885 288.176 3.83428C287.475 4.56608 286.974 5.54101 286.241 6.06616C286.222 4.31324 286.964 2.69647 287.285 1.22071C286.261 1.60484 285.219 2.14944 284.219 2.63082C282.6 1.69723 280.897 0.763638 279.169 0.0610121C279.008 -0.00949361 278.665 -0.0775678 278.733 0.216611C280.213 1.28635 279.641 3.28726 279.799 4.81407L278.864 4.04337C278.409 2.88124 277.093 2.04003 276.869 0.763638C275.318 1.06025 274.328 1.47113 272.892 2.08623L272.692 2.19807C273.761 2.19807 274.671 3.03927 275.197 3.88048C273.581 3.97286 272.145 3.33345 270.553 3.17785C270.392 3.01739 270.258 2.83505 270.003 2.85936C269.205 3.15597 268.526 3.72488 267.817 4.27191C266.248 5.81574 264.651 7.52733 263.901 9.57199C264.427 9.66438 265.087 9.6425 265.474 9.96099C264.612 10.4837 263.858 11.3711 263.013 11.8719C262.719 13.0559 262.762 14.398 262.694 15.6963C262.035 16.6955 261.146 17.5829 260.713 18.6964C259.301 23.2696 258.936 28.3435 259.143 33.5318C258.686 33.9621 258.092 34.2417 257.663 34.5796L257.71 39.2209H257.822C258.031 38.2411 259.192 37.6965 259.895 37.0376H260.124C260.012 38.083 259.873 39.1285 259.851 40.2006L258.53 41.2923C257.213 42.452 258.328 44.2 258.211 45.6563C258.306 46.0453 258.369 46.6142 258.649 46.7066C258.805 46.1377 259.306 45.7268 259.623 45.2284C260.192 45.0874 260.691 44.6352 261.214 44.5671C260.925 45.7025 260.535 46.8185 260.075 47.9101C259.859 48.0535 259.601 48.2505 259.382 48.479C259.151 48.7294 258.966 49.0163 258.922 49.3251C259.944 54.7175 261.555 60.0395 263.402 65.1135C262.147 67.2262 261.438 69.7207 260.394 71.9063C260.246 72.2127 260.112 72.5214 259.985 72.8399C258.939 75.4875 258.62 78.4415 257.318 80.987C256.795 80.6199 256.228 80.3476 255.636 80.0972C253.171 79.2803 250.325 79.803 248.529 81.6896C246.933 81.393 245.292 81.6653 244.037 82.5065C243.141 83.1824 242.445 83.9944 242.048 84.945C241.78 85.6039 241.651 86.3211 241.695 87.1064C240.668 87.8115 240.12 88.9031 239.782 89.9947C239.303 92.4551 240.167 95.0103 241.578 96.8994L342.962 96.9018Z" fill="white"/>
<path fill-rule="evenodd" clip-rule="evenodd" d="M387.367 48.4834C386.89 47.0903 386.357 45.7482 385.77 44.4597C382.562 37.837 378.201 30.6941 371.474 26.5026C367.684 24.1419 364.202 20.4902 362.062 16.7169C360.899 15.6666 359.782 14.2808 358.28 14.0304C358.691 14.7136 359.144 15.3724 359.261 16.1674L359.168 16.2817C357.577 16.3279 356.321 15.4867 355.228 14.4583L356.438 13.3691C355.98 13.143 355.457 13.0482 354.955 12.9388C350.353 12.4161 346.573 14.5288 342.499 15.5548L342.431 15.7809C344.933 16.8944 345.456 19.6465 346.917 21.5162C347.282 21.081 347.897 21.3995 348.396 21.3533C349.124 21.3995 349.808 21.9222 350.511 21.7398C350.536 21.1272 350.197 20.6506 350.08 20.106C350.511 19.897 351.039 20.0817 351.516 20.106C352.836 20.8767 354.955 19.965 355.776 21.7398C354.272 21.8346 352.86 22.1483 351.448 22.4911C351.538 23.06 352.108 23.5171 352.064 24.086C350.854 23.5803 349.582 23.2691 348.236 23.1062L348.172 23.308C349.881 25.3113 352.222 26.4953 354.615 27.2028C358.054 27.9978 361.081 26.3616 364.404 26.9305C372.564 30.6624 379.53 39.1985 382.562 47.2994C382.711 47.6884 382.852 48.0822 382.988 48.4785C385.527 55.8768 386.006 64.9769 383.465 72.6887C382.112 75.9028 380.622 78.9273 378.235 81.5408C377.332 82.6471 376.332 83.6366 375.246 84.4778C371.827 87.1375 367.611 88.307 363.269 87.1132C362.999 86.9357 362.447 86.8871 362.537 86.4106C362.69 85.7785 362.831 85.1318 362.955 84.4778C363.678 80.775 364.007 76.885 363.817 72.9999C363.807 72.8322 363.805 72.6644 363.797 72.4991C363.559 66.8538 362.432 61.7749 360.354 56.893C359.025 54.0898 357.44 51.0337 355.447 48.2889C353.069 45.0164 350.115 42.1889 346.323 40.7788C343.998 40.1637 341.126 40.0519 339.377 41.9871C338.121 43.0787 337.6 44.5569 337.78 46.1713C335.821 47.4161 333.618 48.0871 331.221 48.2889C330.634 48.3399 330.031 48.5515 329.425 48.549C328.843 48.5758 328.276 48.549 327.728 48.4785C324.837 48.1236 321.921 46.5749 319.704 44.7928C319.658 43.6161 319.587 42.4953 319.543 41.248C318.27 40.5867 317.224 39.3322 317.131 37.8565L317.248 37.7422C317.976 37.9683 318.614 38.333 319.271 38.722C318.974 36.9472 318.636 35.1943 317.747 33.648C316.927 33.3052 316.102 33.0353 315.33 32.622C314.442 32.0312 313.873 30.9615 313.741 29.9817C314.535 30.7597 315.924 30.485 316.54 31.3043C315.472 28.1413 315.447 24.5236 313.692 21.6329C312.804 19.4934 310.48 18.516 308.886 16.943C308.27 16.1942 308.022 15.1488 306.904 15.0321C305.994 14.806 305.924 13.78 305.766 13.1235C306.335 13.1892 306.812 13.5782 307.294 13.6681C305.97 10.1623 304.809 6.27476 301.234 4.04532L300.618 4.42946C299.231 4.63854 297.748 4.72607 296.359 4.77226C296.975 3.86055 298.067 3.47641 298.934 3.06311C297.929 2.31429 297.106 2.13194 295.85 1.92529C295.122 2.65709 293.808 3.01691 292.874 3.22114L292.762 3.13361C292.737 2.31672 292.547 1.31019 293.779 1.10839C292.596 0.539487 290.637 0.765591 289.427 1.10839C289.084 1.99579 288.113 2.79081 288.176 3.83624C287.475 4.56804 286.974 5.54296 286.241 6.06811C286.222 4.31519 286.964 2.69842 287.285 1.22266C286.261 1.6068 285.219 2.15139 284.219 2.63278C282.6 1.69918 280.897 0.765591 279.169 0.0629655C279.008 -0.00754025 278.665 -0.075615 278.733 0.218564C280.213 1.28831 279.641 3.28921 279.799 4.81602L278.864 4.04532C278.409 2.88319 277.093 2.04199 276.869 0.765592C275.318 1.0622 274.328 1.47308 272.892 2.08818L272.692 2.20002C273.761 2.20002 274.671 3.04122 275.197 3.88243C273.581 3.97482 272.145 3.3354 270.553 3.1798C270.392 3.01934 270.258 2.837 270.003 2.86131C269.205 3.15792 268.526 3.72683 267.817 4.27386C266.248 5.81769 264.651 7.52928 263.901 9.57394C264.427 9.66633 265.087 9.64445 265.474 9.96294C264.612 10.4857 263.858 11.3731 263.013 11.8739C262.719 13.0579 262.762 14.3999 262.694 15.6982C262.035 16.6975 261.146 17.5849 260.713 18.6984C259.301 23.2715 258.936 28.3455 259.143 33.5337C258.686 33.9641 258.092 34.2437 257.663 34.5816L257.71 39.2228H257.822C258.031 38.243 259.192 37.6984 259.895 37.0396H260.124C260.012 38.085 259.873 39.1304 259.851 40.2026L258.53 41.2942C257.213 42.4539 258.328 44.202 258.211 45.6583C258.306 46.0473 258.369 46.6162 258.649 46.7086C258.805 46.1397 259.306 45.7288 259.623 45.2304C260.192 45.0894 260.691 44.6372 261.214 44.5691C260.925 45.7045 260.535 46.8204 260.075 47.912C259.859 48.0555 259.601 48.2524 259.382 48.4809C259.151 48.7314 258.966 49.0182 258.922 49.327C259.944 54.7195 261.555 60.0415 263.402 65.1154C262.147 67.2282 261.438 69.7226 260.394 71.9083C260.246 72.2146 260.112 72.5234 259.985 72.8419C258.939 75.4895 258.62 78.4434 257.318 80.9889C256.795 80.6218 256.228 80.3495 255.636 80.0991C253.171 79.2822 250.325 79.8049 248.529 81.6916C246.933 81.395 245.292 81.6673 244.037 82.5085C243.141 83.1843 242.445 83.9964 242.048 84.947C241.78 85.6059 241.651 86.3231 241.695 87.1084C240.668 87.8134 240.12 88.905 239.782 89.9967C239.303 92.4571 240.167 95.0123 241.578 96.9014H281.826C281.235 96.1987 280.687 95.2189 280.274 94.3777C279.412 93.077 280.003 91.2366 279.911 89.7341C280.731 88.0809 281.564 86.4179 282.501 84.8011C282.69 84.4753 282.88 84.1568 283.075 83.8408L284.922 83.1357C285.901 83.1357 286.723 82.4307 287.655 82.6787C288.909 83.9332 288.909 81.429 290.118 81.3147C292.942 80.9501 295.743 81.2224 297.335 83.6123C297.335 83.9307 297.841 83.9307 297.724 84.2273C297.359 84.3368 297.016 84.1106 296.631 84.1106C294.901 83.6803 292.871 82.5838 291.165 83.5636C291.099 83.9721 291.012 84.3878 290.929 84.7963C290.844 85.2315 290.766 85.6569 290.729 86.0654C291.844 86.3839 292.779 87.1813 293.621 88.0444C294.19 86.9309 295.397 86.43 296.468 86.0654C297.403 86.2696 298.427 86.2939 299.204 86.8847C300.64 88.2073 299.932 90.4586 299.798 92.141C301.093 92.868 302.528 93.2813 303.848 93.9839C303.232 94.5358 302.417 94.7594 301.664 95.0342L299.479 94.599C299.228 94.4191 298.793 94.4191 298.703 94.1006C297.975 94.8713 297.086 95.8973 296.631 96.8965H327.833C327.422 95.9629 326.945 95.236 326.375 94.3729C325.735 93.0065 325.991 91.1393 325.92 89.683L328.836 85.246C330.427 85.2242 332.231 84.6309 333.959 84.9275C334.046 84.8886 334.129 84.8449 334.21 84.7938C334.928 84.2979 335.147 83.1454 336.215 83.2889C338.126 82.7686 339.586 83.6341 341.022 84.4972C340.973 84.6115 340.927 84.7112 340.876 84.7938C340.275 85.7542 339.15 84.682 338.33 84.9713C337.987 85.336 338.491 85.7663 338.556 86.1796C338.853 86.5856 338.259 86.5395 338.057 86.61C337.58 86.678 337.057 86.5638 336.69 86.1796C336.6 86.0629 336.668 85.9292 336.488 85.9073C336.074 86.5856 335.482 87.2032 335.324 87.9763C335.845 88.4796 336.551 88.978 336.804 89.6174C337.327 90.3686 336.393 90.9351 336.213 91.5964C336.144 91.7301 335.935 91.7301 335.869 91.5964C335.387 91.3241 334.981 90.6385 334.455 90.8184C333.998 92.8461 334.614 94.8713 334.341 96.8965C335.229 97.1056 336.276 96.8503 337.232 96.8965L337.622 92.6175C338.028 89.8435 339.673 87.5217 341.608 85.4016C343.699 83.9745 345.047 86.7947 346.593 87.7721C346.846 87.8183 346.756 88.0906 346.865 88.2486C346.844 88.7057 346.366 88.8856 346.048 89.0242C345.089 89.3621 344.383 88.3167 343.791 87.7016C343.224 88.3167 342.971 89.1336 342.312 89.615L342.538 89.6806C343.295 90.4343 344.018 91.2293 344.183 92.231C344.091 93.1378 343.636 94.0252 342.813 94.4847C342.202 93.4344 341.698 92.2747 341.292 91.205C341.314 91.2536 341.265 91.2731 341.221 91.3217C339.966 91.6596 339.632 93.0697 339.423 94.21C339.491 95.3259 338.649 95.7806 338.873 96.8941H355.116C356.915 96.6218 358.828 96.6655 360.261 95.3429C366.346 96.279 372.515 94.7765 377.298 91.4335C379.822 89.3962 382.09 87.0427 383.923 84.4729C385.539 82.207 386.817 80.0894 387.642 77.5536C388.255 75.9855 388.742 74.359 389.109 72.6839C390.842 64.8067 389.932 55.9886 387.367 48.4834Z" fill="#FF6600"/>
<path fill-rule="evenodd" clip-rule="evenodd" d="M282.844 90.7146C283.732 90.1457 285.167 90.0071 285.369 88.6894C285.009 88.4147 284.688 88.0719 284.277 87.9819L283.343 88.2542C283.411 87.7072 283.707 87.0945 283.895 86.5037L286.897 85.5264C286.484 86.8903 286.328 88.597 286.189 90.1676C286.462 92.4894 286.805 94.9693 287.99 96.9021H284.754C284.391 94.7651 282.155 93.2139 282.844 90.7146Z" fill="#FF6600"/>
<path fill-rule="evenodd" clip-rule="evenodd" d="M289.838 87.9814H290.018L292.201 89.9629L292.52 89.8948C292.342 92.2167 292.225 94.4923 292.201 96.9016H289.836C289.354 94.6503 288.558 92.2823 288.651 89.8511C289.06 89.236 289.332 88.4604 289.838 87.9814Z" fill="#FF6600"/>
<path fill-rule="evenodd" clip-rule="evenodd" d="M294.709 90.1694C295.144 89.6029 295.324 88.6426 296.188 88.5332C296.804 88.5502 297.373 88.6426 297.833 89.0778C298.628 90.077 297.85 91.3559 297.56 92.3551C297.239 93.8795 296.689 95.4695 296.19 96.9039H293.891L294.709 90.1694Z" fill="#FF6600"/>
<path fill-rule="evenodd" clip-rule="evenodd" d="M329.262 89.4627C329.763 90.1021 329.921 90.9652 330.673 91.5341C331.335 90.6248 331.493 89.2123 331.174 88.0526L330.515 87.3913C331.359 87.1895 332.245 87.119 333.089 86.9609C332.724 88.1668 332.035 89.2584 332.155 90.6686C332.176 92.7181 332.517 94.7676 332.7 96.9022H330.196C329.286 94.8989 328.373 92.9904 328.442 90.6686C328.714 90.2577 328.897 89.7787 329.262 89.4627Z" fill="#FF6600"/>
<path fill-rule="evenodd" clip-rule="evenodd" d="M340.036 45.746C340.012 46.3368 339.581 46.9932 339.966 47.4989C340.518 46.8838 341.426 46.9057 342.156 46.6334C344.183 46.4486 346.118 47.088 348.007 47.5451C347.53 46.7914 347.211 45.9502 346.685 45.2695C345.636 44.9947 344.042 45.7241 343.862 44.173C343.225 43.6284 342.224 44.0174 341.562 44.0612C340.922 44.5158 340.401 45.0847 340.036 45.746Z" fill="white"/>
<path fill-rule="evenodd" clip-rule="evenodd" d="M270.422 26.0976C270.412 26.0927 270.402 26.083 270.388 26.0732C270.388 26.083 270.393 26.0878 270.393 26.0976H270.422Z" fill="white"/>
<path fill-rule="evenodd" clip-rule="evenodd" d="M278.704 46.3251L280.072 45.0074C280.189 45.0074 280.279 45.0293 280.344 45.1168L280.232 47.6429C280.892 48.258 281.707 48.4598 282.574 48.5084C282.644 47.8277 283.168 47.3463 283.465 46.7555C283.715 46.279 283.557 45.5739 284.056 45.236L284.217 45.3916C284.372 46.1452 284.329 46.9864 284.718 47.6429C284.764 48.0076 284.827 48.4598 284.871 48.7807C285.876 48.8269 286.789 48.5546 287.561 48.1875C287.514 47.3244 287.814 46.6193 287.945 45.8267C288.155 45.552 287.695 45.0488 288.264 45.0731C288.585 45.7562 289.152 46.4589 289.474 47.1907C290.793 45.8486 291.345 44.0981 291.657 42.2747C291.272 41.7544 290.681 41.7544 290.221 41.4116C286.351 40.162 281.388 39.9116 277.653 41.8444C277.402 43.3858 277.721 45.0925 278.704 46.3251Z" fill="white"/>
<path fill-rule="evenodd" clip-rule="evenodd" d="M242.503 89.0219C242.365 90.7749 242.503 92.4184 242.615 94.1494C242.98 94.7183 243.645 95.3796 244.304 95.4209L244.416 94.2588C244.688 92.6445 243.825 90.9305 244.737 89.5641C245.375 89.7659 246.012 90.0868 246.559 90.381C246.832 88.8809 246.443 87.1256 245.007 86.2139L242.503 89.0219Z" fill="white"/>
<path fill-rule="evenodd" clip-rule="evenodd" d="M248.13 86.562C247.242 89.2266 246.582 92.5064 247.653 95.312C248.269 94.8987 248.904 94.5121 249.449 93.9456C249.337 91.8037 249.04 89.5232 250.315 87.7436C251.429 88.0864 252.184 89.1561 252.612 90.1991C253.368 89.2461 253.617 87.9235 253.322 86.6544C253.368 85.6503 252.23 85.8812 251.682 85.4704C251.862 84.6267 251.838 83.6542 252.729 83.1729L249.999 83.4451C249.293 84.4492 248.519 85.4217 248.13 86.562Z" fill="white"/>
<path fill-rule="evenodd" clip-rule="evenodd" d="M253.757 94.4244C253.872 94.6262 253.757 94.9933 253.989 95.0395C254.327 93.1261 255.875 91.8887 256.722 90.2014C257.128 89.6398 257.109 88.8375 257.768 88.4071C258.654 88.4071 259.294 89.0441 260.161 89.1122C260.433 89.3188 260.02 89.5012 259.998 89.7273C259.818 91.2784 259.226 92.5572 259.338 94.1521H259.496C260.703 92.8757 261.524 91.5021 262.412 90.0458L262.568 88.7524C262.777 87.2037 261.093 86.2044 259.993 85.565L260.974 84.3105L259.606 83.834C258.012 83.992 256.576 84.6533 255.461 85.9078C254.074 88.4509 253.847 91.3295 253.757 94.4244Z" fill="white"/>
<path fill-rule="evenodd" clip-rule="evenodd" d="M259.886 80.9209C260.407 81.0765 260.886 80.6486 261.407 80.8722C263.505 81.6478 265.69 82.4428 267.263 84.1933L269.132 88.9512L270.066 86.0119L269.451 84.4243C268.925 83.2865 267.491 83.3788 266.511 83.3326C266.102 82.8756 266.532 82.3529 266.671 81.9225C267.148 80.3058 265.167 80.3957 264.371 79.7369C264.418 78.7619 263.232 79.0974 262.57 79.0099L262.344 78.7376C262.208 78.5285 261.867 78.5285 261.682 78.689C261.641 78.6209 261.548 78.5747 261.594 78.4629L261.095 78.5747C260.385 79.1898 259.908 79.9848 259.886 80.9209Z" fill="white"/>
<path fill-rule="evenodd" clip-rule="evenodd" d="M261.203 75.6867C261.273 75.9784 261.453 76.275 261.68 76.4598C262.707 76.1875 263.69 75.4776 264.87 75.9128C266.399 77.2548 267.991 78.665 269.838 79.3919L270.5 79.28C270.906 79.4138 271.361 79.4356 271.634 79.8951C271.887 80.5102 271.249 80.8701 271.047 81.3709C272.07 82.1246 271.663 83.4642 272.298 84.3735L273.936 82.1927C273.554 81.2348 273.961 79.5985 272.461 79.5061C271.955 79.2557 271.617 78.7573 271.636 78.1884C270.66 77.301 269.453 76.9145 268.475 76.0027C267.672 75.3682 267.197 74.3908 266.175 74.1623C265.467 73.7733 264.693 73.5691 263.875 73.3916C262.344 73.1582 262.208 74.9792 261.203 75.6867Z" fill="white"/>
<path fill-rule="evenodd" clip-rule="evenodd" d="M263.393 71.2033L263.666 71.6409C264.805 71.5704 265.827 71.072 266.944 71.0914C267.694 71.5461 268.674 71.5218 269.448 71.9108C270.064 72.7544 270.726 73.705 271.632 74.2739C273.479 74.5462 274.501 76.5325 275.139 77.984V77.2813C275.411 76.3016 275.114 75.1613 274.757 74.2739C274.299 73.8193 273.635 73.5251 273.16 73.1191C273.068 72.8225 273.136 72.6815 273.228 72.4116C272.52 71.6603 271.473 71.2495 270.607 70.6562C269.4 68.9033 267.08 69.3871 265.233 68.9033L263.393 71.2033Z" fill="white"/>
<path fill-rule="evenodd" clip-rule="evenodd" d="M263.354 54.513C263.556 55.2205 263.802 56.1054 263.94 56.8591C264.575 55.449 265.833 54.8096 266.948 53.6523C266.308 53.2196 265.512 53.0129 264.809 52.8792V52.833C264.305 53.329 263.532 53.8322 263.354 54.513Z" fill="white"/>
<path fill-rule="evenodd" clip-rule="evenodd" d="M267.491 62.0016L268.513 60.9561C269.54 59.9059 270.387 58.6975 270.54 57.3579C269.812 56.9276 268.856 57.2242 268.153 57.4746C267.902 58.948 267.513 60.4043 267.491 62.0016Z" fill="white"/>
<path fill-rule="evenodd" clip-rule="evenodd" d="M268.241 65.2108C269.813 65.2984 271.341 65.6169 272.616 64.7295L273.893 60.6353C273.48 60.611 273.069 60.4262 272.684 60.5672C271.842 62.4295 270.159 64.2748 268.241 65.2108Z" fill="white"/>
<path fill-rule="evenodd" clip-rule="evenodd" d="M268.703 50.6943C269.728 52.1944 271.438 53.8743 273.188 54.3557C272.986 52.4423 271.346 51.1222 270.501 49.4884L270.455 48.9414C269.796 48.3044 268.998 47.8692 268.314 47.5312C268.205 48.6229 268.501 49.6659 268.703 50.6943Z" fill="white"/>
<path fill-rule="evenodd" clip-rule="evenodd" d="M274.255 65.3909C275.462 65.5952 276.761 65.3909 277.875 65.0481C279.491 64.6591 280.381 62.8868 280.927 61.501H278.9L276.717 63.638C275.853 64.0902 275.033 64.7734 274.255 65.3909Z" fill="white"/>
<path fill-rule="evenodd" clip-rule="evenodd" d="M274.009 48.6221C274.352 50.3993 275.107 52.0136 276.131 53.538L276.401 50.1465L274.009 48.6221Z" fill="white"/>
<path fill-rule="evenodd" clip-rule="evenodd" d="M281.475 57.4725C281.614 56.3347 281.137 55.0121 281.003 53.8572C280.32 53.4002 279.366 53.4439 278.658 52.9941C278.704 54.786 280.11 56.3128 281.475 57.4725Z" fill="white"/>
<path fill-rule="evenodd" clip-rule="evenodd" d="M279.405 69.0307C280.838 68.576 282.227 68.0752 283.551 67.3483C284.393 66.1399 285.665 65.0507 285.85 63.6406C284.797 63.9348 283.891 63.592 282.911 64.0734C282.32 65.1407 281.952 66.3515 280.816 67.1222C280.634 67.8904 279.792 68.4156 279.405 69.0307Z" fill="white"/>
<path fill-rule="evenodd" clip-rule="evenodd" d="M281.634 71.8282L283.342 74.0576C284.255 74.3518 285.393 74.2643 286.189 73.7415L285.578 71.7188C284.369 72.1685 282.934 72.0372 281.634 71.8282Z" fill="white"/>
<path fill-rule="evenodd" clip-rule="evenodd" d="M284.482 55.7213L285.141 58.7215C286.735 57.4281 287.063 55.539 287.017 53.5381C286.107 54.5835 285.579 55.2205 284.482 55.7213Z" fill="white"/>
<path fill-rule="evenodd" clip-rule="evenodd" d="M288.972 61.0195C288.994 61.4547 289.106 61.8632 289.354 62.2035C291.13 62.843 291.313 64.9995 292.955 65.8188C294.021 66.3002 295.255 65.7069 296.184 65.2718C295.481 64.4767 294.685 63.9297 294.001 63.0909C293.525 62.8867 293.04 62.5901 293.067 61.9993L288.972 61.0195Z" fill="white"/>
<path fill-rule="evenodd" clip-rule="evenodd" d="M290.384 71.7625C291.155 72.645 292.201 73.1045 293.294 73.3501C293.114 73.1021 293.41 73.3501 293.454 73.1945L292.087 70.1895C291.403 70.2138 290.695 70.3523 290.06 70.3062C290.111 70.807 290.221 71.3054 290.384 71.7625Z" fill="white"/>
<path fill-rule="evenodd" clip-rule="evenodd" d="M292.797 57.7465C292.157 56.2683 291.895 54.4668 291.707 52.833C291.028 53.6523 290.32 54.1775 289.68 55.0138C289.384 56.6962 291.795 57.1071 292.797 57.7465Z" fill="white"/>
<path fill-rule="evenodd" clip-rule="evenodd" d="M295.572 56.1957C296.397 57.2703 298.193 56.9056 299.195 56.5847C298.716 55.7654 297.173 55.284 296.901 54.4039C296.745 52.8333 296.424 51.3041 295.92 49.877C295.125 51.8074 294.161 54.1073 295.572 56.1957Z" fill="white"/>
<path fill-rule="evenodd" clip-rule="evenodd" d="M297.009 61.0189C299.287 62.6795 301.521 64.6147 304.705 63.9072C304.933 63.7516 305.323 63.7687 305.367 63.4769C304.432 62.8861 303.432 62.4266 302.475 61.882L301.385 60.292H300.883C299.652 60.698 298.333 60.8633 297.009 61.0189Z" fill="white"/>
<path fill-rule="evenodd" clip-rule="evenodd" d="M297.055 79.4721H297.218C298.584 78.3805 300.2 78.0134 301.816 77.5612C302.251 77.7216 301.976 78.2006 302.366 78.3805C303.344 77.9745 304.529 78.062 305.53 77.7216C306.737 77.7654 307.718 77.7873 308.696 78.31C309.475 79.336 310.928 79.2193 311.933 79.9049L311.77 78.31C309.655 75.8301 306.352 75.6502 303.3 75.6964L303.232 75.3779C302.505 75.3779 301.684 75.5335 301 75.8544C300.024 75.9006 299.087 76.3772 298.153 76.6713C297.717 77.5369 297.374 78.5896 297.055 79.4721Z" fill="white"/>
<path fill-rule="evenodd" clip-rule="evenodd" d="M298.885 51.5107C299.771 52.6728 301.092 53.5626 302.595 53.266C301.824 52.5099 300.931 51.7149 300.887 50.6476C301.116 48.6224 298.885 48.4595 297.792 47.4141C298.157 48.7804 298.109 50.3048 298.885 51.5107Z" fill="white"/>
<path fill-rule="evenodd" clip-rule="evenodd" d="M298.652 83.4981H298.924C300.129 82.7493 301.884 83.3207 303.069 82.5232C303.729 82.1804 303.775 83.0921 304.23 83.3425C305.347 84.0209 305.486 86.0704 307.056 85.5939C308.942 86.5712 308.467 88.8687 308.536 90.5512L310.29 89.462C310.13 88.5746 310.634 87.5048 310.062 86.7317C309.628 85.7543 308.443 85.6644 307.874 84.8694C308.56 83.7072 307.01 83.1578 306.688 82.3166L306.783 82.2047L309.198 82.5232C310.018 83.0216 310.315 83.9333 310.565 84.777C312.452 85.0955 312.907 87.2325 313.569 88.5964C313.958 87.6653 314.116 86.6612 314.503 85.7519C314.528 85.0006 313.525 85.0006 313.024 84.6603C312.89 83.4981 312.364 82.409 311.339 81.7063C309.244 81.1763 307.401 80.0215 305.101 80.0215L303.188 80.6098C302.137 80.8627 301.022 80.5442 300.224 81.2687C299.036 81.3611 298.949 82.6594 298.652 83.4981Z" fill="white"/>
<path fill-rule="evenodd" clip-rule="evenodd" d="M299.856 74.1261L300.292 74.3328C301.227 73.9 302.159 73.3992 303.14 73.0345C304.661 72.6042 305.846 74.3328 307.126 73.2387C307.601 72.9008 308.015 73.3992 308.375 73.6739C308.93 74.6732 310.2 74.6051 311.159 74.875C310.68 73.5815 310.086 71.8067 308.424 71.6001C307.764 71.3059 306.988 71.3302 306.352 70.9412C304.598 69.0084 303.461 72.5361 301.541 71.673C300.862 72.4194 300.017 73.1293 299.856 74.1261Z" fill="white"/>
<path fill-rule="evenodd" clip-rule="evenodd" d="M300.292 85.208C301.019 85.8231 301.771 86.871 302.912 86.7324C304.321 87.3913 303.73 89.2585 304.501 90.2382L305.321 89.5089L305.253 89.4603L305.367 89.3484L305.416 89.4116C305.642 88.7333 305.324 87.5274 304.934 86.7275C304.414 86.3653 303.801 86.7519 303.297 86.4091C303.229 85.6773 302.774 85.3174 302.251 84.8652C301.886 84.5881 301.406 84.9528 300.995 84.9284L300.292 85.208Z" fill="white"/>
<path fill-rule="evenodd" clip-rule="evenodd" d="M303.14 57.4719C303.889 58.7215 305.347 59.4971 306.51 60.3602C307.468 60.7929 308.716 60.9072 309.743 60.6762C308.763 59.8812 307.872 58.9695 307.057 58.0165C306.736 57.5594 306.668 56.988 306.237 56.582C305.166 56.7887 303.957 56.7644 303.14 57.4719Z" fill="white"/>
<path fill-rule="evenodd" clip-rule="evenodd" d="M304.396 49.3302C305.442 50.6261 307.06 50.1033 308.539 50.1495V49.9891L306.262 48.0781C305.624 48.2799 304.943 48.8488 304.396 49.3302Z" fill="white"/>
<path fill-rule="evenodd" clip-rule="evenodd" d="M262.466 27.8715L263.785 31.9681C263.76 29.6463 264.836 27.7086 264.607 25.3455L265.583 23.8867L263.51 24.5261C262.965 25.5716 262.51 26.6194 262.466 27.8715Z" fill="white"/>
<path fill-rule="evenodd" clip-rule="evenodd" d="M263.354 20.7726L265.152 19.7271V17.0625C264.395 17.5171 263.989 18.2951 263.398 18.9029L263.354 20.7726Z" fill="white"/>
<path fill-rule="evenodd" clip-rule="evenodd" d="M300.297 24.9126C299.864 25.4791 299.204 25.6201 298.657 25.7295C299.616 23.9814 300.071 21.5453 299.319 19.5639C299.818 19.384 300.365 19.2916 300.842 19.0193L300.796 18.9707L302.049 17.879C303.712 16.7412 303.072 14.5823 303.687 12.9655C302.87 11.694 302.619 10.1453 301.434 9.07556L301.502 9.02936C300.567 7.84535 298.883 7.98393 297.608 7.39314C295.919 6.82424 294.621 7.98393 293.412 8.75707C292.889 8.84945 293.21 9.5302 292.64 9.50588C292.322 10.3471 291.932 11.2588 291.703 12.1924C289.45 11.8739 287.013 12.1243 285.215 13.3983C284.253 12.6908 283.097 12.5571 281.98 12.2386C281.16 12.0757 280.228 12.3723 279.636 11.9177C278.772 10.9427 278.585 9.16551 277.103 8.91753C276.58 8.73275 276.47 8.16384 276.47 7.66301C275.489 7.50012 274.62 7.04791 273.669 6.84369C272.211 6.18239 271.05 7.23268 269.957 7.93531C269.475 8.1371 268.93 8.20761 268.475 8.47991C267.657 9.7563 266.886 11.0521 266.355 12.4623C266.518 13.622 267.017 14.6431 267.611 15.6253C268.134 17.1035 269.775 18.2656 271.162 18.8588C270.502 21.1102 270.502 23.7918 271.162 26.0674C271.162 26.0674 271.125 26.099 271.125 26.0917C271.125 26.099 271.052 26.1598 271.052 26.1598C270.838 26.1598 270.6 26.2012 270.422 26.0917H270.393C270.719 28.2653 271.741 30.1714 273.396 31.8027C273.99 32.0069 273.851 32.7144 274.099 33.1666C274.26 33.3733 274.284 33.8036 274.216 33.986C270.661 33.8741 267.494 34.7615 264.647 36.3759C263.919 36.7405 264.238 37.7398 264.17 38.4473C266.175 37.1247 268.336 36.1498 270.729 35.7146C271.753 35.6514 272.912 35.3961 273.895 35.6684L274.007 37.6304C271.301 39.0429 268.336 39.8598 266.017 42.1816C266.061 42.8843 265.924 43.7012 266.129 44.2944L268.205 42.612C270.208 41.0852 272.303 39.7893 274.601 38.9481C275.219 39.675 275.857 40.453 276.677 40.9052C278.064 40.0154 279.571 39.3565 281.165 38.9481C282.007 38.4473 283.353 38.9019 283.898 37.9027L284.283 35.8313C284.219 35.7851 284.171 35.6927 284.056 35.7146C282.988 35.0995 282.28 34.0322 282.372 32.7825C282.007 32.9624 281.601 33.0791 281.165 33.0961C280.805 33.0086 280.459 32.9162 280.301 32.5491C280.279 32.0969 280.048 31.4137 280.508 31.0758C281.985 30.1641 283.9 30.1179 285.767 30.254C287.155 30.4388 289.16 30.3683 289.642 32.0069C289.574 32.4859 289.618 33.011 289.138 33.3271C288.637 33.5994 288.07 33.3028 287.612 33.0961C287.249 34.2145 286.634 35.4641 285.383 35.8288L285.538 37.1466C285.694 37.7398 285.743 38.7171 286.677 38.5105C288.841 39.0381 290.757 40.1516 292.645 41.355C293.285 40.7205 293.784 39.9911 294.237 39.3298C297.613 40.4725 300.523 42.9961 303.308 45.3422L303.417 43.4289C300.774 41.0827 297.839 39.4246 294.785 38.1288C294.901 37.5137 295.038 36.9205 295.062 36.2592C298.681 36.4658 302.12 37.5818 305.101 39.3298L305.055 37.6936C301.913 36.0087 298.474 34.8952 294.719 34.8515C294.578 34.6473 294.534 34.3506 294.558 34.1464C296.381 33.8522 297.676 31.9656 298.112 30.3221C299.049 29.2548 300.392 28.0927 300.073 26.5026C300.112 26.3689 300.158 26.2303 300.207 26.0917C300.326 25.7003 300.429 25.2821 300.297 24.9126Z" fill="white"/>
<path fill-rule="evenodd" clip-rule="evenodd" d="M303.461 30.7626L305.327 30.1694L305.536 29.1264C306.06 27.5996 304.943 26.4618 304.395 25.2559L303.461 30.7626Z" fill="white"/>
<path fill-rule="evenodd" clip-rule="evenodd" d="M308.175 37.9715C309.063 38.9513 309.93 40.5194 311.501 40.0429C311.385 39.3816 311.02 38.8346 310.796 38.2438C310.387 37.7673 310.246 36.4009 309.428 36.8799C308.813 36.4714 308.657 35.7882 308.265 35.2412C308.088 36.0848 308.2 37.1303 308.175 37.9715Z" fill="white"/>
<path fill-rule="evenodd" clip-rule="evenodd" d="M308.494 44.638C308.837 45.1146 308.932 45.7321 309.268 46.1649C309.883 46.5709 310.796 46.5028 311.55 46.4372C312.229 46.2767 312.665 47.0255 313.3 46.5952C312.504 46.0943 312.027 45.1851 311.278 44.5213C310.387 43.8211 309.431 44.4362 308.494 44.638Z" fill="white"/>
<path fill-rule="evenodd" clip-rule="evenodd" d="M309.703 55.2208C311.275 56.152 313.27 57.0637 315.368 56.7452C315.594 56.6334 315.983 56.6553 316.027 56.383C314.728 55.9259 313.365 54.63 312.003 54.3577C311.251 53.198 310.27 54.6544 309.314 54.562C309.336 54.8318 309.608 55.0361 309.703 55.2208Z" fill="white"/>
<path fill-rule="evenodd" clip-rule="evenodd" d="M314.433 75.3105L314.776 76.0375C315.121 78.4055 316.618 80.5863 315.8 83.1804C316.484 83.6618 316.688 84.4568 317.124 85.0938H317.236C317.759 83.1172 317.396 81.0677 317.124 79.0862C317.328 77.2896 315.503 76.2441 314.433 75.3105Z" fill="white"/>
<path fill-rule="evenodd" clip-rule="evenodd" d="M314.827 52.0115C316.009 52.9233 317.9 53.0108 319.265 52.5586C318.401 52.0821 317.445 51.5545 316.737 50.9199L314.827 52.0115Z" fill="white"/>
<path fill-rule="evenodd" clip-rule="evenodd" d="M320.449 58.9937C320.337 59.9516 320.972 60.7466 321.656 61.228C321.907 60.6615 322.313 60.1777 322.359 59.5431C322.155 58.5658 321.607 57.6759 320.719 57.0146C320.563 57.6516 320.379 58.2667 320.449 58.9937Z" fill="white"/>
<path fill-rule="evenodd" clip-rule="evenodd" d="M320.517 69.373C320.354 70.4403 321.539 70.5789 322.038 71.1697C322.449 71.6705 321.765 72.0133 321.765 72.4898C322.632 73.6033 323.135 74.8724 323.135 76.3555C323.473 74.9697 323.997 73.6495 324.182 72.2175C324.089 71.2134 322.498 71.4225 322.746 70.3066C323.203 69.1688 322.656 68.0552 322.359 67.0268C322.272 66.8712 322.062 66.5503 321.885 66.6451C321.471 67.5739 320.449 68.2352 320.517 69.373Z" fill="white"/>
<path fill-rule="evenodd" clip-rule="evenodd" d="M323.637 63.956L324.82 66.2535C325.343 66.1855 325.683 65.6846 326.092 65.3199C326.411 64.3645 325.567 63.7494 325.321 62.9738C325.114 62.4268 325.321 61.7023 324.932 61.2257C324.635 61.041 324.297 60.7444 323.956 60.8367L323.637 63.956Z" fill="white"/>
<path fill-rule="evenodd" clip-rule="evenodd" d="M325.158 57.9023C326.095 58.4713 327.164 59.2881 327.667 60.2922C328.463 62.6141 329.739 64.7025 330.671 66.9562C331.014 68.5268 331.287 69.9296 331.717 71.4735C331.88 71.8844 331.788 72.6794 332.428 72.6113C332.606 70.8827 332.949 69.2197 332.973 67.423C332.404 66.6718 331.654 66.3557 330.946 65.9011V65.7406C331.038 65.3565 331.36 64.897 331.834 64.9699C332.036 64.7414 332.654 64.5153 332.382 64.1044C331.197 62.9228 331.265 60.8879 329.378 60.5208C328.716 60.2485 328.558 59.5629 328.49 58.9308C327.599 58.1746 326.28 57.9267 325.158 57.9023Z" fill="white"/>
<path fill-rule="evenodd" clip-rule="evenodd" d="M326.259 70.2362C327.417 71.3035 327.01 72.8522 326.918 74.2867C326.738 75.1522 327.828 74.6465 328.171 75.106C328.879 76.1514 328.468 77.6782 328.22 78.8136C328.835 77.8776 329.538 77.0607 330.015 76.0347C329.996 75.6506 330.495 75.4658 330.473 74.9869C330.675 74.328 329.903 74.6246 329.582 74.5565C329.31 74.4885 329.015 74.3061 329.108 73.9414C329.694 72.8036 329.152 71.4397 328.923 70.3019C328.65 69.3683 329.04 68.1162 328.602 67.2969C327.872 68.3034 325.706 68.5295 326.259 70.2362Z" fill="white"/>
<path fill-rule="evenodd" clip-rule="evenodd" d="M328.374 54.0834C330.403 56.133 331.882 58.1898 334.067 60.1713C334.113 59.2814 333.999 58.4645 333.955 57.599C333.636 56.9839 333.043 56.5317 332.539 56.0722C330.923 55.9166 330.082 53.7406 328.374 54.0834Z" fill="white"/>
<path fill-rule="evenodd" clip-rule="evenodd" d="M333.677 64.9238C333.725 65.1329 333.818 65.3128 333.91 65.5146C334.796 66.9734 335.64 68.4759 336.256 70.044C336.071 68.3592 337.21 66.2683 335.704 64.97C335.502 64.4206 334.823 64.6053 334.385 64.6491L333.677 64.9238Z" fill="white"/>
<path fill-rule="evenodd" clip-rule="evenodd" d="M339.146 81.5441C339.783 81.8407 340.603 81.318 341.219 80.9533C341.789 80.8172 342.266 81.1381 342.701 81.4323C342.881 81.7945 342.701 82.1374 342.769 82.4802C344.135 82.8643 345.476 83.3675 346.683 84.1626L347.068 83.776C347.16 82.7986 346.389 82.0912 345.656 81.5441C345.181 81.2718 344.471 81.4323 344.132 80.9995C344.361 80.6348 344.361 80.0878 344.337 79.6794C343.585 79.6794 343.105 79.4484 342.494 79.0886C342.105 78.9743 341.762 78.6534 341.443 79.0886C340.306 79.8593 340.238 80.9995 339.146 81.5441Z" fill="white"/>
<path fill-rule="evenodd" clip-rule="evenodd" d="M340.745 52.9137C341.311 52.7508 341.905 52.5928 342.382 52.1819C343.91 50.7937 346.117 51.7273 347.895 51.7054C347.552 51.0903 347.071 50.4752 346.64 49.9525C346 49.7021 345.409 49.4079 344.681 49.4079C343.131 48.4962 342.088 50.023 340.9 50.7718C340.579 51.3869 340.423 52.2962 340.745 52.9137Z" fill="white"/>
<path fill-rule="evenodd" clip-rule="evenodd" d="M340.783 57.5981C340.783 57.5276 340.783 57.4571 340.852 57.4401C341.061 57.62 340.83 58.0576 341.173 58.1451C341.764 57.8485 342.312 57.4401 342.857 57.0535C344.383 57.0535 345.296 55.5729 346.795 55.5729C349.304 56.03 351.787 56.5332 353.97 57.7561C353.814 56.2828 352.534 54.9359 351.239 54.277C350.507 54.0266 349.937 54.4132 349.416 54.8241C347.893 55.782 348.689 53.4358 347.62 53.3896C346.228 53.82 344.792 54.3014 343.244 54.1603C342.334 54.5056 341.694 55.3444 340.669 55.252C340.628 56.0081 340.516 56.9198 340.783 57.5981Z" fill="white"/>
<path fill-rule="evenodd" clip-rule="evenodd" d="M341.835 62.67C342.312 63.1757 343.108 63.0834 343.794 63.1757L345.775 62.3978C345.797 62.0404 345.184 61.9431 345.32 61.5347C345.868 60.9196 346.615 61.3548 347.301 61.1043C348.255 60.9658 349.236 60.0151 350.193 60.7153C350.163 60.832 350.234 60.9876 350.144 61.1043C349.849 61.8094 350.348 62.2422 350.896 62.5145C352.013 62.7187 353.057 63.7447 354.174 63.2852C354.062 62.3516 353.814 61.4933 353.585 60.6011C352.651 60.443 351.989 59.6699 351.125 59.349C350.74 59.7137 350.234 59.986 349.757 59.9398C348.002 59.5289 345.904 58.4373 344.13 59.5532C343.492 60.3288 342.353 60.1002 341.487 60.4406C341.538 61.2137 341.628 61.9674 341.835 62.67Z" fill="white"/>
<path fill-rule="evenodd" clip-rule="evenodd" d="M342.587 76.1977C342.451 76.5843 342.064 77.2189 342.772 77.4036C344.227 77.4474 346.095 76.6961 347.234 77.834C347.621 78.1306 347.436 78.7457 347.412 79.1322L349.324 80.7247C349.507 79.7644 349.852 78.9013 349.876 77.8777C349.716 77.1484 349.351 76.4457 348.713 75.9692C347.458 75.9692 346.733 74.5032 345.385 74.6831C344.682 74.5275 344.066 75.1523 343.358 75.1523C343.044 75.4684 342.859 75.8574 342.587 76.1977Z" fill="white"/>
<path fill-rule="evenodd" clip-rule="evenodd" d="M343.132 65.4689C343.427 66.084 343.772 67.0857 344.339 67.1513C345.683 66.5654 347.644 66.1983 349.146 66.8377C349.645 66.9252 349.645 67.4941 349.535 67.8588C350.307 68.3134 351.242 68.6781 352.062 69.1765L351.833 67.8102C351.787 66.332 349.922 66.1983 349.806 64.7395C348.28 64.2411 346.571 64.0782 344.955 64.4672C344.432 64.9438 343.677 64.8805 343.044 65.0143C342.998 65.1966 343.108 65.3133 343.132 65.4689Z" fill="white"/>
<path fill-rule="evenodd" clip-rule="evenodd" d="M343.519 72.8426C344.407 72.5897 344.979 71.6148 345.935 71.5224C347.39 71.5467 348.689 72.1399 349.602 73.3945C350.147 73.7519 350.033 74.6855 350.741 74.6855C350.531 73.572 350.896 72.5508 350.85 71.4082C349.899 69.8181 347.529 71.0483 346.641 69.1787L344.957 69.293C343.748 69.592 344.069 71.0021 343.911 71.96C343.772 72.2518 343.5 72.4803 343.519 72.8426Z" fill="white"/>
<path fill-rule="evenodd" clip-rule="evenodd" d="M351.882 82.7962C352.585 84.2063 354.137 85.2761 354.293 86.8904C354.656 86.4601 354.909 85.9592 355.157 85.4803C355.132 85.0256 354.609 85.0256 354.407 84.6609C354.198 84.0702 354.517 83.5474 354.609 83.0223C354.312 82.1811 353.604 81.3861 352.811 80.8828L351.882 82.7962Z" fill="white"/>
<path fill-rule="evenodd" clip-rule="evenodd" d="M354.683 79.2003L356.321 81.4322C357.024 80.3187 357.024 78.6776 356.751 77.3355C356.596 77.0827 356.296 76.6742 355.89 76.859C355.274 77.4936 355.182 78.4733 354.683 79.2003Z" fill="white"/>
<path fill-rule="evenodd" clip-rule="evenodd" d="M348.007 16.9218C348.598 17.2185 349.167 17.4908 349.878 17.5369C350.352 17.2865 350.97 17.1018 351.562 17.2646C352.403 17.8117 353.428 17.1504 354.408 17.1966C353.542 16.3772 352.559 15.874 351.562 15.3975C350.284 15.6673 349.262 16.579 348.007 16.9218Z" fill="white"/>
<path fill-rule="evenodd" clip-rule="evenodd" d="M356.913 19.0561C358.119 19.1704 358.988 20.2401 359.803 21.1275C360.827 21.2831 361.601 22.0149 362.214 22.7637L361.832 21.5603C361.56 20.352 360.803 19.4184 360.032 18.4629C358.939 18.5334 357.866 18.6282 356.913 19.0561Z" fill="white"/>
<path fill-rule="evenodd" clip-rule="evenodd" d="M271.916 9.07812L272.578 9.14863C274.35 10.036 277.219 10.4907 277.385 13.0605C275.581 13.768 273.851 14.721 272.415 16.1773C271.324 15.0638 269.115 15.6765 268.747 13.7218C269.093 11.874 269.75 9.55222 271.916 9.07812Z" fill="#FF6600"/>
<path fill-rule="evenodd" clip-rule="evenodd" d="M273.627 20.6174C275.7 20.4326 277.704 20.7268 279.845 20.5469C280.366 20.773 280.911 21.2252 281.164 21.7503C281.094 24.2083 280.344 26.5544 280.232 29.0781C279.298 29.4622 278.385 30.2402 278.156 31.2613C277.314 31.5117 276.56 32.0101 275.739 32.3967C275.382 31.626 275.445 30.4639 276.085 29.8245C276.973 28.5748 279.276 28.8665 279.093 26.8875C279.685 25.9345 279.118 24.7043 279.135 23.705C278.908 22.9514 278.679 23.9555 278.317 23.9312C277.589 24.0867 276.839 24.1329 276.199 23.7683C275.72 23.2674 275.133 22.8565 274.992 22.1782C274.352 21.8597 273.605 21.3613 273.284 20.7L273.627 20.6174Z" fill="#FF6600"/>
<path fill-rule="evenodd" clip-rule="evenodd" d="M276.131 35.4455C277.105 35.5865 278.134 35.1489 278.976 35.6303C278.798 35.9512 278.316 36.0849 277.929 36.1773L276.401 36.88C275.834 36.7462 276.153 35.8345 276.131 35.4455Z" fill="#FF6600"/>
<path fill-rule="evenodd" clip-rule="evenodd" d="M280.115 16.4501C281.091 16.1316 282.142 15.4752 283.188 15.7888C282.439 16.5425 281.847 17.5174 281.278 18.4291L278.159 18.361C278.502 17.5393 279.366 16.861 280.115 16.4501Z" fill="#FF6600"/>
<path fill-rule="evenodd" clip-rule="evenodd" d="M289.249 15.7014C290.546 15.4753 290.475 17.1577 291.66 17.221C291.869 17.4933 292.166 17.7437 292.05 18.1545C291.363 18.4268 290.363 18.2956 289.59 18.473C288.563 17.9041 289.227 16.1293 287.609 16.2436C287.519 16.105 287.339 15.8327 287.563 15.7428C288.064 15.5629 288.728 15.6309 289.249 15.7014Z" fill="#FF6600"/>
<path fill-rule="evenodd" clip-rule="evenodd" d="M288.429 21.7936C288.999 20.9961 289.865 20.9305 290.685 20.7725L296.585 20.8819C296.836 21.1128 296.356 21.3171 296.356 21.5894C295.994 21.9322 295.468 22.0245 295.149 22.3406C294.375 22.3625 294.443 23.2742 293.898 23.6632C293.054 24.5044 291.822 24.1154 290.844 23.9817C290.503 23.7288 290.116 23.3885 289.953 23.0019L289.68 23.2742C290.023 24.5506 289.933 25.9607 290.187 27.2566L291.598 28.1901C291.62 30.281 294.081 29.7121 295.149 30.8742C294.898 31.6279 294.397 32.2625 293.852 32.8994C292.988 32.0582 292.005 31.5136 290.961 31.1465C290.868 29.9236 289.525 29.1918 288.777 28.5791C288.568 26.3473 288.524 24.0716 288.162 21.9103L288.429 21.7936Z" fill="#FF6600"/>
<path fill-rule="evenodd" clip-rule="evenodd" d="M290.571 35.834H293.306L292.963 37.266L290.226 36.1063C290.163 35.8802 290.411 35.8121 290.571 35.834Z" fill="#FF6600"/>
<path fill-rule="evenodd" clip-rule="evenodd" d="M295.49 10.0579L297.518 9.4209C298.681 9.96549 299.771 10.6462 300.842 11.4218C301.684 12.9681 301.55 15.0614 301.161 16.79C300.545 17.4707 299.202 16.79 298.703 17.8816H298.608C297.858 15.7445 295.716 13.8287 293.735 12.8562C294.054 11.7622 294.397 10.6924 295.49 10.0579Z" fill="#FF6600"/>
</svg>
