<svg width="461" height="218" viewBox="0 0 461 218" fill="none" xmlns="http://www.w3.org/2000/svg">
<g clip-path="url(#clip0_543_452)">
<path d="M112.919 183.35H119.809C123.828 183.35 138.565 183.159 138.565 169.953C138.565 164.211 134.737 157.13 123.445 157.13H112.919V183.35ZM135.503 216.46L113.11 184.69H112.919V216.46H102.967V147.943H124.02C133.589 147.943 138.565 150.24 142.201 153.685C146.603 157.896 148.517 164.211 148.517 169.953C148.517 188.135 133.398 191.006 128.996 191.006L148.134 216.652H135.503V216.46Z" fill="#00A160"/>
<path d="M203.255 165.168C200.384 162.106 194.642 155.79 184.69 155.79C170.527 155.79 159.427 168.039 159.427 182.393C159.427 197.513 171.867 208.613 184.69 208.613C186.604 208.613 201.532 208.422 208.231 191.58H176.46V182.393H219.523C219.14 205.36 200.958 217.8 184.307 217.8C164.403 217.8 149.475 201.532 149.475 182.393C149.475 162.68 164.594 146.604 184.307 146.604C195.982 146.604 208.231 152.728 214.929 165.168H203.255Z" fill="#00A160"/>
<path d="M222.968 216.46V147.943H259.714V157.13H232.92V177.226H259.714V186.412H232.92V207.274H259.714V216.46H222.968Z" fill="#00A160"/>
<path d="M310.05 216.46L276.365 163.446H276.174V216.46H266.222V147.943H277.131L310.241 200.001H310.432V147.943H320.385V216.46H310.05Z" fill="#00A160"/>
<path d="M335.504 216.46V157.13H322.298V147.943H358.47V157.13H345.456V216.46H335.504Z" fill="#00A160"/>
<path d="M372.633 186.412V161.149L405.169 186.412H372.633ZM372.633 147.752H361.915V217.035H372.633V196.173H417.992L444.978 217.035H460.289L372.633 147.752Z" fill="#00A160"/>
<path d="M87.6559 186.412L55.1199 186.221L87.6559 160.958V186.412ZM87.6559 147.752L0 217.035H15.3111L42.2968 196.173H87.6559V217.035H98.3736V147.752H87.6559Z" fill="#00A160"/>
<path d="M209.762 38.8516H232.537L182.585 78.469V60.4785L209.762 38.8516Z" fill="#00A160"/>
<path d="M266.222 126.891H243.638L293.399 87.4648V105.455L266.222 126.891Z" fill="#00A160"/>
<path d="M266.222 38.8516L278.471 48.6124L194.642 115.024L182.585 105.455V83.2537L238.47 38.8516H266.222Z" fill="#00A160"/>
<path d="M281.533 50.9092L293.399 60.4786V82.6797L237.514 126.89H209.763L197.705 117.321L281.533 50.9092Z" fill="#00A160"/>
<path d="M245.935 33.1103L273.686 11.1006H325.744L297.992 33.1103H245.935Z" fill="#00A160"/>
<path d="M239.811 4.40193L245.361 0V28.7083L239.811 33.1102V4.40193Z" fill="#00A160"/>
</g>
<defs>
<clipPath id="clip0_543_452">
<rect width="460.289" height="217.8" fill="white"/>
</clipPath>
</defs>
</svg>
